<?xml version="1.0" encoding="UTF-8"?><svg id="uuid-0b63be95-b56f-4d1a-af01-021ce257f667" xmlns="http://www.w3.org/2000/svg" viewBox="0 0 100 100"><path d="M58.5,10.08c2.71.09,5.56,2.97,5.56,5.68v4.41h17.2c1.2,0,2.41,1.7,2.5,2.82.12,1.56-1.17,3.45-2.82,3.45h-3.93v52.16c-.33,5.8-4.73,10.91-10.68,11.24h-32.74c-5.82-.37-10.25-5.37-10.61-11.08V26.44s-3.93,0-3.93,0c-2.33,0-3.63-3.15-2.25-5.03.34-.46,1.36-1.25,1.93-1.25h17.2v-4.65c0-.19.22-.98.3-1.21.74-2.33,2.82-4.02,5.27-4.23h17ZM58.66,20.17c.01-.18.07-.34.08-.51.06-.83.1-2.63-.01-3.41-.05-.33-.23-.67-.54-.81l-16.31-.02c-.33.12-.56.4-.61.75-.11.79-.08,2.74-.01,3.57.01.15.05.29.08.43h17.32ZM70.74,26.44H29.26v52.24c0,2.05,2.42,4.84,4.58,4.88h32.09c2.36.05,4.8-2.8,4.8-5.03V26.44Z"/><path d="M41.5,10.08c-2.45.21-4.53,1.9-5.27,4.23-.07.23-.3,1.02-.3,1.21v4.65h-17.2c-.58,0-1.59.78-1.93,1.25-1.38,1.88-.08,5.03,2.25,5.03h3.93v52.32c.35,5.71,4.78,10.71,10.6,11.08h32.74c5.95-.33,10.35-5.45,10.69-11.24V26.44s3.93,0,3.93,0c1.65,0,2.94-1.89,2.82-3.45-.09-1.13-1.3-2.82-2.5-2.82h-17.2v-4.41c0-2.71-2.85-5.59-5.56-5.68h25.34v79.85H16.15V10.08h25.34Z" style="fill:#fff;"/><path d="M58.13,41.57c.88-.88,2.46-.37,2.59.89v25.11c-.33,1.75-2.76,1.72-3.02-.08v-24.87c.02-.38.15-.77.43-1.04Z"/><path d="M41.56,41.16c1.09-.18,1.86.63,1.85,1.69v24.31c.04,1.99-2.69,2.38-3.03.4v-25.27c.07-.55.65-1.04,1.17-1.13Z"/></svg>