<?xml version="1.0" encoding="UTF-8"?><svg id="uuid-6490dbda-5065-44c3-96a5-45267a34813f" xmlns="http://www.w3.org/2000/svg" viewBox="0 0 100 100"><path d="M12.94,33.93c.45-9.04,7.2-15.58,16.24-15.94,1-.04,1.99.09,2.95.1,4.91.02,9.88-.19,14.77-.1,2.25.04,3.66,2.28,2.56,4.27-.75,1.36-1.96,1.41-3.37,1.47-5.83.25-12.05-.4-17.82,0-5.36.36-9.72,5.39-9.71,10.7.07,12.2-.13,24.41.1,36.6.74,5.35,5.02,9.18,10.41,9.46h35.9c5.75-.32,10.11-4.68,10.43-10.43.34-6.15-.26-12.62,0-18.8.25-3.4,5.35-3.54,5.65.18-.24,6.23.3,12.69,0,18.89-.42,8.51-6.97,15.28-15.49,15.79H28.52l-2.85-.42c-6.52-1.43-11.63-6.98-12.54-13.6l-.19-1.91v-36.25Z"/><path d="M76.67,13.88c.53.2,1.09.37,1.52.76,2.42,2.74,5.63,5.21,7.97,7.97.44.52.69,1,.89,1.66v1.52c-.23.61-.45,1.25-.89,1.75l-30.09,30.07c-.4.29-.84.5-1.32.65-3.88,1.23-8.32,1.7-12.26,2.87-1.63.19-2.89-1.07-2.7-2.7,1.16-3.95,1.65-8.37,2.86-12.27.13-.42.32-.85.58-1.21l30.29-30.31c.45-.38,1.01-.51,1.52-.76h1.61ZM44.63,56.31c2.96-.76,5.97-1.32,8.91-2.15l29.01-29-6.72-6.89-29.05,29.04-.21.6-1.94,8.4Z"/></svg>