<?xml version="1.0" encoding="UTF-8"?><svg id="uuid-ccdf818e-de21-48ce-9d30-9e144704b7db" xmlns="http://www.w3.org/2000/svg" viewBox="0 0 2161.63 1078.36"><g opacity=".24"><path d="M1097.19-1.48c3.95,4.74,10.03,9.42,15.64,11.92,22.48,10.02,53.52,15.75,77.53,24.05,9.63,3.33,19.25,7.32,28.6,11.39,42.74,18.59,122.69,53.46,143.4,96.5,2.39,4.98,9.19,17.36.96,19.1-14.63,3.08-40.85-24.93-52.25-33.73-33.81-26.09-78.66-49.53-117.73-67.06-21.12-9.47-44.14-16.14-65.46-25.33-2.83-.66-1.22,2.53-.66,3.92,12.2,30.39,92.98,49.7,122,62.79,34.03,15.35,97.86,55.32,117.3,86.94,2.69,4.38,6.21,9.06,3.07,14.37-3.84,6.48-11.67,2.76-16.66.31-15.19-7.45-35.49-24.68-50.92-34.45-38.34-24.27-74.96-39.22-114.08-59.9-11.54-6.1-21.25-15.33-33.45-20.03,3.63,10.97,12.71,18.02,22.36,23.55,44.77,25.67,148.82,66.57,168.35,114.78,6.67,16.45,3.93,21.2-12.43,12.42-20.63-11.07-40.32-30.06-61.24-42.5-27.5-16.34-57.04-27.09-80.42-50.34l-10.7-6.59c5.85,14.35,12.73,34.33,26.28,42.89,8.07,5.09,18.28,7.79,26.73,12.17,35.7,18.49,88.27,46.75,113.97,77.3,2.35,2.79,11.52,13.68,7.08,16.84-6.28,4.46-28.21-15.2-34.08-19.02-28.95-18.81-67.45-44.14-99.26-56.35-2.7-1.04-5.26-2.33-8.29-1.97,9.18,21.52,36.08,27.15,55.02,38.45,18.33,10.94,57.26,38.2,70.3,53.97,5.12,6.2,17.81,23.02.69,20.97-9.02-1.08-34.62-27.35-43.37-34.49-14.82-12.08-38.61-30.09-55.3-38.72-2.58-1.33-4.7-2.9-7.89-2.37,7.4,27.61,40.27,31.47,60.87,46.64,13.41,9.88,39.4,43.37,47.64,58.26,3.7,6.68,6.79,15.18-5.07,12.63-9.57-2.06-15.19-13.35-21.29-19.77-6.97-7.34-47.03-48.5-54.57-46.98-.99.76-1.59,1.38-1.71,2.71-.72,8.3,28.75,34.79,35.71,41.08,11.17,10.1,47.22,36.23,50.34,49.15,1.08,4.5-1.48,10.6-6.53,10.7-13.59.26-37.55-38.05-49.18-45.27,1.04,10.23,9.36,18.67,14.22,27.37,11.55,20.69,26.8,48.69,27.96,72.54.26,5.26,1.43,21.27-6.83,19.85-5.9-1.01-10.33-16.11-13.19-21.44-8.17-15.24-19.36-30.66-23.81-47.52-1.31-4.96-3.97-27.3-7.57-29.18-2.48-1.3-1.67,4.74-1.59,5.92,1.12,15.69,9.67,34.27.49,49.19-10.53-5.16-7.1-21.69-8.37-31.58-2.57-19.98-9.58-41.53-13.76-61.35l-2.14,10.26c-1.82,16.77-1.27,35.1-4.65,51.54-1.12,5.44-1.95,10.54-7.22,13.29,20.11,19.49,39.87,38.76,62.75,55.02,3.25,2.31,10.62,5.53,12.92,7.91,5.46,5.64,10.15,18.07,16.99,23.78l3.48,41.35c-42.66-19.53-71.16-63.78-91.69-104.43-15.82-31.32-21.46-52.49-19.59-88.45,1.17-22.41,7.22-44.34,5.38-66.99-.15-1.82-4.42-23.88-6.46-21.09-.46,14.92.57,29.97.03,44.89-.65,18.12-2.24,40.28-7.06,57.78-3.19,11.61-5.97,24.97-12.97,6.46-11.33-29.99-2.77-72.56-1.58-104.22.59-15.76.56-31.97-4.39-47.05-1.55-.26-1.46,1.88-1.82,3.01-2.77,8.82-.66,17.74-1.42,26.69-1.97,23.15-4.5,51.53-7.85,74.28-1.59,10.8-4.31,30.1-14.83,34.87l32.27,25.01c13.94,32.45,26.97,66.28,47.27,95.37,6.26,8.97,41.67,49.52,39.25,57.8-.79,2.7-6.7,1.83-8.86,1.49-10.87-1.73-32.19-19.47-40.79-27.28-46.08-41.81-63.12-106.79-87.5-162.13-.42-1.39.23-2.12,1.59-1.59,1.26.5,11.96,9.22,12.43,8.63-2.13-5.44-4.03-9.98-5.24-15.82-9.76-47.32.54-65.7,9.04-109.52,3.3-17.01,5.45-33.47,2.68-50.8-1.48-.26-1.64,1.93-1.86,2.97-1.56,7.21-.62,14.36-1.51,21.19-3.39,26.03-15.43,67.99-25.27,92.52-3.73,9.29-15.02,34.54-23.74,14.05-9.15-21.48.14-50.86,3.64-73.06,1.59-10.11,1.59-20.49,3.69-30.89,5.05-24.95,28.05-69.54,24.28-91.92-.91-5.4-5.43-9.52-6.24-14.85-2.79-.31-1.71,0-2.18,1.57-2.32,7.76-1.98,16.93-3.98,25.21-6.68,27.66-20.95,56.43-28.1,85.37-5.36,21.72-5,46.4-12.18,66.71-3.57,10.1-11.32,25.26-21.63,11.33v-95.1c5.94-18.59,11.46-37.39,18.35-55.67,8.49-22.52,29.3-58.45,24.39-81.62-2.62-12.38-11.81-27.07-21.12-35.6-2.88,25.33-4.35,50.68-9,75.84-3.02,16.38-6.72,32.85-12.63,48.43V-1.48h16.21Z" fill="#1c6065"/><path d="M1889.31,1079.17c1.09-36.99,20.43-71.26,35.81-104.13,21.72-46.42,50.28-91.57,54.95-143.89,1.09-12.18,2.01-30.98-.47-42.74-.13-.62-1.58-6.02-3.32-3.2-1.39,2.25-2.48,16.34-2.67,20.02-.38,7.16.47,14.52.03,21.65-3.44,56.15-41.28,108.5-64.73,157.88-2.46,5.18-11.02,31.07-15.8,31.46-8.96.72-4.49-20.34-3.48-24.81,9.54-42.38,43.93-84.38,56.98-126.73,7.12-23.1,20.45-91.03,9.92-111.55-.71-1.39-1.88-3.09-3.45-3.56-2.9,17.2-1.59,34.92-4.65,52.09-6.78,37.99-28.81,81.7-48.52,114.66-1.67,2.79-4.05,6.61-6.03,9.09-1.02,1.28-1.23,2.96-3.47,2.46,5.12-19.83,4.78-43.46,10.04-62.89,2.94-10.86,10.42-24.13,14.54-35.17,11.28-30.21,27.36-78.17,17.59-109.99-.48-1.55.63-1.9-2.19-1.58-1.6,10.02-.01,19.61-1.1,29.71-1.56,14.54-13.16,65.64-20.7,76.55-.76,1.1-1.66,2.58-3.05,2.88,1.81-19.65,4.63-39.24,6.47-58.9,1.78-19.07,3.75-38.39,5.39-57.29,1.02-11.74-1.29-20.44-2.18-31.28-.61-7.43.67-14.84,1.13-22.19,7.19,5.62,13.45,12.42,21.58,16.77,29.7,15.9,68.66,6.81,96.11,24.92,7.71,5.08,19.86,16.48,2.83,17.78-17.62,1.35-62.71-9.25-78.8-17.46-10.61-5.42-18.93-16.23-30.93-18.23,14.7,29.29,47.81,44.27,79.44,46.45,43.22,2.98,75.72-3.09,117.02,15.9,4.65,2.14,19.86,8.98,19.39,14.92-.35,4.48-7.76,1.67-9.99,1.61-37.75-1-85.49-4.6-121.79-14.36-14.33-3.86-40.33-16.19-53.27-16.98-.87-.05-2.6-.48-2.69.53,9.58,18.06,25.48,20.21,43.92,23.08,44.18,6.89,90.28,9.18,134.77,15.44,9.31,1.31,18.63,2.83,27.71,5.25v23.77c-14.53-2.19-29.02-6.63-43.78-7.55-18.58-1.17-38.57-.02-57.25-1.1-19.31-1.12-38.65-4.08-57.84-5.93,14.49,6.93,30.31,9.75,46.09,12.27,37.31,5.97,75,8.41,112.77,9.88v28.1c-34.1-7.79-70.21-7.1-103.98-15.44-2.85-.7-38.38-12.56-38.68-8.87.05,5.23,7.03,9.08,11.18,11.52,37.54,22.04,89.69,17.96,131.48,24.67v25.94c-11.4-.14-22.72-2.39-34.05-3.23-9.95-.74-21.33-.13-31.19-1.22-7.03-.78-36.78-11.38-40.66-8.5.55,1.67,1.53,3,2.86,4.16,9.64,8.41,47.96,16.76,61.46,18.51,13.78,1.79,28.07.95,41.59,4.34v30.26c-20.61-3.15-44.07-5.16-63.99-11.11-13.17-3.93-23.82-12.01-36.51-16.97,12.58,17.54,36.35,26.29,56.45,32.7,14.42,4.59,29.33,8.14,44.05,11.6v29.18l-75.64-31.33c3.12,10.37,10.67,17.31,19.11,23.56,16.69,12.38,37.24,21.86,56.53,29.38v36.74c-14.28-3.78-23-16.34-35.13-23.77-.76-.24-.67.84-.54,1.62,1.31,8.28,27.72,26.39,35.67,30.79v45.39c-5.58-7.37-8.39-17.28-17.28-21.61l1.07,28.1h-25.94c3.7-22.3,13.1-51.67-4.31-70.24-2.54,10.66-.25,22.07-1.11,32.94-1,12.63-6.36,24.7-7.55,37.3h-22.69c5.04-19.76,12.78-39.31,14.09-59.93,1.08-16.91,1.35-38.74-9.76-52.46-4.02,37.77-8.45,75.69-18.38,112.39h-27.02c6.77-19.32,13.02-38.55,17.63-58.55,4.23-18.34,14.35-60.05,12.61-77.06-.82-8.03-7.28-18.18-12.07-24.67-1.17-1.58-3.84-6.11-5.73-6.15-1.28,15.29,1.51,30.55.57,45.98-1.17,19.31-7.18,41.81-11.59,60.82-4.63,20-10.22,39.81-15.47,59.63h-45.39c5.67-15.13,11.8-31.03,18.68-45.62,3.73-7.91,9.82-15.73,13.18-23.57,10.38-24.28,13.97-49.92,19.66-75.43,5.55-24.88,13.58-34.89.22-61.11-1.42-2.78-6.94-12.17-8.48-4.42-1.45,7.34-1.52,17.03-2.19,24.83-3.69,43.09-21.03,90.69-35.65,131.85-6.4,18.01-13.97,35.55-20.55,53.47h-36.74c17.34-45.97,39.29-89.89,55.41-136.41,10.21-29.46,24.5-68.48,20.11-99.58-.55-3.9-3.08-18.96-7.96-19.05-3.61,12.08.58,24.59-.57,37.28-.81,8.92-4.72,21.7-7.26,30.56-18.47,64.45-56.06,121.56-70.53,187.21h-31.34Z" fill="#1c6065"/><path d="M1080.98,932.2c6.74-.1,13.73,3.5,20.11,4.21,4.36.48,12.73-.83,15.93.28,1.66.58,1.68,3.09,3.63,3.93,11.01,4.76,47.18,8.06,62.12,11.37,41.58,9.2,84.49,22.76,121.56,43.78,20.3,11.52,37.61,23.51,44.7,47.16,3.57,11.92,3.16,27.32-13.16,18.56-8.41-4.51-19.43-15.64-28.04-21.67-41.42-28.98-66.79-36.23-115.76-45.26-25.37-4.68-50.66-16.57-76-22.36l-3.34,5.93c4.12,3.71-.37,6.46-.2,8.45.3,3.64,2.62,7.52,5.99,9.13,7.31,3.49,20.94,6.42,29.24,8.59,59.37,15.49,110.69,22.35,165.22,54.15,9.21,5.37,20.93,11.26,26.29,20.72h-57.27c-49.6-30.18-110.13-36.03-165.95-48.28-.71.97-4.74,5.23-4.74,5.6,0,.41,2.05,1.67,2.57,2.78.63,1.32.51,3.16,1.19,4.21,5.29,8.13,106.94,24.08,121.53,35.7h-112.39l-41.6-21.62c2.4,8.23,9.35,14.31,13.5,21.62h-15.13v-51.87c6.65,3.02,14.18,10,21.63,9.17-1.63-2.39-.23-8.31-2.15-9.74-2.78-2.08-15.51-4.22-19.48-6.99v-37.82c6.17,2.73,12.41,6.29,19.45,5.39.46-1.78-1.84-.49-2.17-1.77-1.43-5.53,2.58-4.74,3.15-6.47.96-2.89-2.31-6.83,2.25-9.59,0-1.74-19.73-7.22-22.67-9.18v-28.1Z" fill="#1c6065"/><path d="M1080.98,804.68c31.17,3.64,63.85,13.75,89.6,31.97,6.74,4.77,20.18,18.25,2.79,16.66-12.44-1.14-32.27-7.83-45.71-10.48-2.46-.48-14.29-3.24-15.34-2.48l2.79,9.84c31.24,7.75,62.57,16.58,92.57,28.24,8.62,3.35,38.59,15.24,40.59,24.31,1.04,4.72-5.03,6.88-8.82,6.7-12.97-4.05-25.14-10.09-38.29-13.69-27.97-7.65-58.22-10.07-86.16-18.64-2.68,1.58-.05,3.17-.7,5.59-1.09,4.06-4.67,5.67,3.36,7.93,33.85,9.52,69.88,12.72,104.63,23.97,30.18,9.77,89.33,39.24,108.29,64.62,6.15,8.24,2.82,12.17-6.68,8.83-57.85-21.79-116.09-50.15-176.79-63.1-7.15-1.53-24.83-5.88-31.06-5.59-2.31.11-7.02,2.19-5.63,4.72.53.97,2.75-.18,1.91,2.69l-4.32.02c.4,2.27,5.11.54,4.31,4.31-1.92-.61-4.61,1.22-5.87,1.13-.68-.05-.53-2.24-1.21-2.26-1-.03-2.34,1.44-3.53.98-.37-.15-6.05-6.07-1.26-5.79.04-.42-5.62-1.19,0-3.23-1.78-.68-1.89-4.34-2.32-4.71-.65-.57-14.74-1.07-17.14-1.25v-31.34c7.65.29,14.97,3.04,22.69,2.15-.06-2.24-3.16-.16-4.87-2.13-.67-.77-1.8-4.79-1.53-5.82l4.24-1.75,1.07,5.39c.23-3.2,1.7-4.55,4.35-5.94-8.55-1.98-16.94-5.32-25.95-4.86v-27.02c3.5-.8,13.14,2.78,15.51,2.06,1.45-.44,1.69-2.8,2.92-3.62,1.77-1.18,5.62-.52,6.42-3.83-2.84-1.43-3.52,2.15-3.77,2.18-4.59.5-2.71-3.7-5.61-5.23-3.64-1.92-11.39-.83-15.47-3.44v-28.1Z" fill="#1c6065"/><path d="M2161.63,408.09v106.98c-9.61,1.02-26.56,20.9-27.05,29.7-.08,1.49-.1,2.1,1.62,1.61,3.23-.92,9.74-5.92,13.89-7.73,3.75-1.64,7.84-2.4,11.54-4.13v25.94c-20.23,5.05-46.3,8.22-56.19,29.17,18.91-5.26,36.27-14.52,56.19-16.2v20.53c-19.29,2.22-37.06,6.39-55.08,13.54-2.76,1.1-8.58,5.22-10.79,4.32l-32.3-26.15c-.42-19.75.35-39.54-.13-59.31-.11-4.33-2.52-8.95-.53-13.42l28.57-33.55c4.41,26.48,10.95,52.22,5.12,79.13-1.91,8.79-7.42,17.48-7.25,26.77,1.05-.19,2-1.34,2.72-2.14,12.56-14.02,17.49-69.2,16.77-88.14-.28-7.52-5.12-30.61-4.16-35.37.51-2.51,15.57-25.07,18.35-30.32,3.56-6.74,6.02-14.02,9.44-20.8.58-1.14-.57-2.05,2.25-1.54,1.54,22.53,4.23,44.91,3.29,67.58l-4.91,53.44c9.25-11.58,17.52-24.53,19.98-39.45l-7.55-93.46c1.88-.5,2.16.79,3.24,1.61,4.54,3.46,8.47,7.85,12.96,11.35Z" fill="#1c6065"/><path d="M1558.63-1.48c.2,16.6-7.62,30.57-9.71,46.47,11.1-11.12,13.52-31.31,16.2-46.47h185.87c-4.54,9.96-13.77,7.39-23.08,8.8-13.39,2.03-26.69,4.74-40.15,6.32-32.52,3.8-78.29,3.06-107.57,18.87-5.89,3.18-11.48,10.76-15.07,16.27-.9,2.75,26.45-8.88,28.34-9.49,24.52-7.9,64.73-12.32,91.21-15.77,15.88-2.07,31.95-3.54,47.94-4.46-8.24,9.84-16.2,20.22-25.61,28.95-38.47,4.97-81.82,1.46-119.21,11.55-6.03,1.63-21.42,8.99-25.48,9.21-3.24.18-10.5-6.73-13.71-8.9-3.58-2.42-24.33-14.69-25.11-15.95-2.34-3.8.6-18.32.6-23.2,0-1.98-1.12-4.16-1.17-6.49-.1-5.23.17-10.49.05-15.71h35.66Z" fill="#1c6065"/><path d="M1565.11,1079.17c5.46-27.93,2.74-56.38-1.61-84.24l30.78-40.03c2.99,19.86,3.6,39.92,3.3,60.01l-4.91,53.44c5.83-7.62,11.82-15.5,15.52-24.46,9.4-22.74-.62-66.07-2-91.71-.2-3.77.1-7.58,0-11.34l23.76,23.23v41.6c8.4-5.89,11.19-16.15,14.03-25.43.23-.74-.33-2.44,1.63-1.58,1.03.45,17.45,14.21,16.76,15.11-15.55,6.25-25.49,22.22-32.42,36.74,15.19-2.91,29.33-9.88,44.29-13.51,3.38-.82,11.63-3.12,14.52-2.68,2.51.39,16.38,11.08,20.17,13.41,8.78,5.39,17.83,10.41,26.92,15.22-1,1.51-2.18,1.45-3.75,1.65-34.55,4.57-75.96-.14-109.11,9.76-12.57,3.75-20.55,13.56-26.54,24.79h-31.34Z" fill="#1c6065"/><path d="M2145.42-1.48c-.76,10.58-2.72,20.98-4.85,31.35-7.74,37.74-19.73,75.94-27.23,113.26-7.76,38.63-8.3,81.42-17.05,119.11-1.71,7.38-6.26,21.8-16.79,16.71-4.2-2.03-6.22-20.01-6.52-24.81-3.79-59.87,10.88-131.07,26.52-188.62,6.09-22.42,14.42-44.4,20-67h25.94Z" fill="#1c6065"/><path d="M2028.71-1.48c-10.65,40.91-29.32,79.83-39.68,120.8-4.5,17.81-4.6,30.72-6.8,48.31-1.55,12.38-10.44,46.67-24.18,22.04-16.8-30.12-9.66-80.53-1.67-112.72,6.65-26.8,17.57-52.17,25.86-78.43h46.47Z" fill="#1c6065"/><path d="M2069.77-1.48c-14.29,54.51-35.24,107.68-43.09,163.86-1.74,12.43-1.85,25.22-3.39,37.67-1.15,9.28-1.55,29.77-11.84,32.46-9.94,2.59-14.37-3.56-17.26-11.98-11.4-33.12-3-64.31,6.13-96.4,12.07-42.39,27.65-83.77,41.35-125.61h28.1Z" fill="#1c6065"/><path d="M1240.92-1.48c26.21,11.33,52.51,22.24,77.06,36.95,16.73,10.03,42.77,29.14,48.35,48.91,4.28,15.14-4.43,18.67-17.22,12.9-14.96-6.75-32.88-21.21-48.02-29.78-25.09-14.2-51.84-25.91-79.05-35.5-31.75-11.18-66.13-17.44-95.66-33.48h114.55Z" fill="#1c6065"/><path d="M2105.44-1.48c-8.37,52.76-30.24,103.29-39.47,155.59-3.96,22.46-3.33,41.05-4.85,63.23-.6,8.7-3.91,32.93-15.64,33.01-15.89.1-15.1-24.37-14.6-35.15,1.53-33.13,7.09-65.04,15.43-96.96,10.54-40.38,24.25-79.86,36.43-119.72h22.69Z" fill="#1c6065"/><path d="M2161.63,154.14c-5.4,14.85-8.92,30.65-11.57,46.24-4.15,24.36-4.84,52.31-10.54,75.91-4.34,17.95-12.71,23.72-18.63,2.34-12.84-46.37-3.39-108.12,8.41-154.13,8.82-34.38,23.11-66.88,32.33-101.13v130.76Z" fill="#1c6065"/><path d="M1967.11-1.48c-9.27,26.61-20.8,52.82-25.62,80.82-3.04,17.7-2.93,35.86-7.14,53.38-1.26,5.26-4.02,21.66-10.93,14.84-10.45-10.32-13.18-54.73-12.56-69.66,1.11-26.84,11.69-54.31,20.58-79.38h35.66Z" fill="#1c6065"/><path d="M1080.98,409.17c1.5,1.61,6.28,3.83,7.03,5.39.18.37,1.61,6.67,1.61,7.03v43.77c11.48-6.81,11.36-22.22,15.97-32.15.51-1.1-.23-1.7,1.84-1.34,4.85,6.23,13.31,10.65,18.42,16.17.98,1.06,1.98,1.53,1.58,3.26-18.39,5.17-29.98,22.46-37.82,38.91,21.82-5.43,42.65-14.37,64.97-17.82,11.19,10.29,25.89,18.76,36.95,28.83,1.06.96,2.32.97,1.81,3.04-37.44,3.66-75.43,1.62-112.38,9.73v-104.82Z" fill="#1c6065"/><path d="M1080.98,560.46v-25.94c8.43-2.56,17.03-4.58,25.71-6.17,25.46-4.67,54.25-9.73,79.79-13.15,4.51-.6,16.84-2.41,20.48-2.21,1.97.11,10.77,7.77,13.43,9.14.43,1.75-21.87,23.68-25.85,24.9-15.48,1.33-30.62,5.16-46.02,6.93-4.15.48-8.79-.44-12.94.02-18.19,2.03-36.41,4.36-54.58,6.47Z" fill="#1c6065"/><path d="M1752.06,1079.17h-141.56c11.52-5.34,24.08-8.13,36.52-10.49,23.47-4.46,49.65-8.58,73.34-12.03,8.95-1.3,27.46-4.6,35.53-4.31,1.78.06,15.63,4.73,15.61,5.76l-19.43,21.07Z" fill="#1c6065"/><path d="M1080.98,573.43l102.67-13.5c-8.3,9.84-15.78,21.3-26.12,28.99l-76.55,5.04v-20.53Z" fill="#1c6065"/><path d="M1558.63,1079.17h-35.66c.22-11.29-.88-22.6-1.99-33.83l27.39-32.07c1.47.89,1.36,2.21,1.8,3.58,2.73,8.54,4.86,23.52,6.15,32.75,1.36,9.76,2.36,19.73,2.32,29.56Z" fill="#1c6065"/><path d="M1080.98,609.09c15.64-2.09,31.29-4.91,47.02-6.47,6.58-.66,13.14-.68,19.67-1.97,1.55-.31,1.78-.27,1.42,1.43s-17.93,27.34-19.46,28.09c-16.18,1.07-32.61.71-48.64,2.69v-23.77Z" fill="#1c6065"/><path d="M1856.89-1.48c-22.67,10.25-47.63,14.36-71.08,22.4-8.18,2.8-30.11,13.99-36.46,14.19-1.18.04-2.54-.6-3.62-1.08-5.17-8.14,16.01-20.1,21.44-23.1,8.74-4.82,18.15-7.99,27.04-12.4h62.68Z" fill="#1c6065"/><path d="M1385.73,1079.17c22.69-10.2,47.63-14.36,71.08-22.4,8.18-2.8,30.11-13.99,36.46-14.19,1.18-.04,2.54.6,3.62,1.08,5.17,8.14-16.01,20.1-21.44,23.1-9.02,4.98-18.64,8.47-28.12,12.4h-61.6Z" fill="#1c6065"/><path d="M1080.98,365.94v-52.95c3.25-.28,4.3,1.04,5.47,3.72,6.9,15.75,10.45,38.27,16.12,55.2,2.4,7.17,15.52,35.6,15.19,39.96-.26,3.44-4.33,3.05-6.84,2.48-11.21-2.56-25.15-38.19-29.95-48.41Z" fill="#1c6065"/><path d="M2161.63,711.75v44.31c-2.11-1.16-6-3.27-7.48-4.94-4.2-4.74-11.17-36.61-14.11-45.33-3.6-10.68-9.27-21.18-12.75-31.56-1.98-5.91-5.29-13.1,4.39-10.89,11.42,2.61,25.04,38.12,29.95,48.41Z" fill="#1c6065"/><path d="M1080.98,649.07l41.08-4.85c-7.03,12.83-13.35,26.26-17.41,40.4-5.5,4.69-19.25-12.21-23.66-15.01v-20.53Z" fill="#1c6065"/><path d="M2161.63,609.09v23.77c-9.56-1.22-26.66,5.93-35.09,4.31-1.95-.38-17.85-14.18-17.87-15.64l52.96-12.44Z" fill="#1c6065"/><path d="M1502.44-1.48c-.52,9.77,2.23,20,1.13,29.77-.17,1.55-.06,2.88-1.75,3.67-3.7-2.12-25.69-9.06-26.93-10.75-2.3-3.16-2.33-17.95-3.79-22.68h31.34Z" fill="#1c6065"/><path d="M1920.65-1.48c-2.48,9.49-3.87,28.29-13.64,33.36-16.03,8.31-16.68-24.69-17.7-33.36h31.34Z" fill="#1c6065"/><path d="M1080.98,797.12v-23.77c11.62,3.64,25,8.41,35.3,14.95,3.73,2.37,11.16,6.44,7.42,12.11-3.69,5.59-36.01-.68-42.72-3.29Z" fill="#1c6065"/><path d="M1340.34-1.48c1.02,4.24,1.86,9.09-1.42,12.64-10.31,11.16-44.08-5.78-54.78-12.64h56.19Z" fill="#1c6065"/><path d="M1860.13,1079.17h-61.6c8.63-2.52,22.49-9.87,30.92-10.74,6.35-.66,15.64,2.4,22.62,1.06l23.78-1.93c5.91,6.6-12.25,7.28-15.72,11.61Z" fill="#1c6065"/><path d="M2161.63,311.91v49.71l-19.45-56.18c2.12-1.55,15.98,6.11,19.45,6.47Z" fill="#1c6065"/><path d="M2161.63,291.38c-9.42-24.82-7.59-53.21-2.72-78.91.54-2.87.68-6.4,2.72-8.62v87.53Z" fill="#1c6065"/><path d="M1450.56-1.48c.73,5.16,2.19,10.17,3.82,15.11.49,1.5,1.06,1.18-1.13,1.13-9.08-.2-19.98-5.18-29.6-4.46l-2.26-11.78h29.18Z" fill="#1c6065"/><polygon points="1080.98 716.07 1098.28 766.32 1097.74 767.94 1080.98 757.14 1080.98 716.07" fill="#1c6065"/><path d="M1409.5-1.48l1.07,10.81c-.39.54-1.38-1.08-1.61-1.08h-21.61c-.23,0-.58.74-1.08.84-2.5-.22-1.21-8.25-2.7-10.57h25.94Z" fill="#1c6065"/><path d="M2161.63,649.07v19.45c-2.95-2.31-18.33-14.35-18.38-16.74l18.38-2.71Z" fill="#1c6065"/><path d="M1386.81,141.18c14.71,29.33,47.77,44.26,79.44,46.45,37.54,2.59,69.95-2.36,106.42,11.37,5.98,2.25,30.54,12.28,29.99,19.45-.8,1.85-2.58,2.79-4.57,2.79-42.1-4.47-86.17-4.49-127.22-15.53-14.34-3.86-40.33-16.19-53.27-16.98-.87-.05-2.6-.48-2.69.53,9.61,18.08,25.46,20.22,43.91,23.09,41.45,6.43,84.59,8.52,126.27,14.21,22.6,3.09,45.14,6.88,65.44,17.77,4.3,2.31,20.58,10.86,12.3,16.72-8.11,5.74-55.05-7.39-67.26-9.31-24.3-3.81-48.71-2.16-73.19-3.54-17.72-1-35.3-4.05-52.92-5.44-1.19-.09-5.03-.86-4.84,1.05,11.61,3.9,23.31,7.32,35.43,9.43,14.79,2.57,32.44,5.01,47.37,6.66,41.54,4.6,81.84.77,121.99,15.25,10.91,3.93,45,20.19,50.72,29.25,8.87,14.05-11.02,6.82-16.48,5.67-34.51-7.23-70.13-16.02-104.82-21.62-25.41-4.1-52.61-4.37-77.36-10.18-14.08-3.3-28.11-10.52-42.82-10.66-4.9,4.71,20.37,16.84,23.49,18.11,41.21,16.77,93.61,13.5,137.73,21.13,36.48,6.31,96.84,23.36,129.53,40.14,5.01,2.57,22.97,12.41,18.39,19.3-5.07,7.63-21.4-2.53-27.6-4.69-8.43-2.94-16.93-5.75-25.62-7.88-32.7-8.03-73.42-16.93-106.56-22.04-24.3-3.75-48.22-2.99-71.96-5.85-13.47-1.62-26.67-9.74-40.66-8.5,3.88,7.37,15.23,10.71,22.95,13.24,16.42,5.38,33.96,8.41,51.09,10.51,82.15,10.07,174.1,21.79,244.66,67.64,8.03,5.22,36.75,26.18,39.52,34.01,2.65,7.47-4.46,6.57-9.41,5.04-33.98-10.51-71.03-29.22-105.39-41.57-28.34-10.19-57.8-19.69-87.58-24.81-35.16-6.04-71.31-7.57-106.14-15.97-16.94-4.09-28.85-11.63-44.29-18.91,12.98,17.76,36.09,26.25,56.45,32.7,85.6,27.11,176.01,28.61,256.96,70.47,23.8,12.31,51.29,29.06,56.76,57.79,3.57,18.75-7.15,19.36-19.95,10.23-35.57-25.39-62.25-47.84-106.84-58.5-13.21-3.16-26.63-3.64-39.82-6.65-20.91-4.77-47.3-13.78-68.23-20.39-38.06-12.01-72.84-30.43-110.48-43.5,5.17,16.11,21.09,25.53,34.93,33.68,85.54,50.32,187.71,45.94,273.37,96.21,9.31,5.46,30.47,16.25,27.54,29.27-3.5,15.57-34.74,2.26-43.39-1.54-25.26-11.11-43.49-23.11-71.19-31.47-46.74-14.11-126.84-18.74-163.44-46.2-5.56-4.17-10.65-11.58-17.86-13.48,2.33,8.01,11.94,15.3,18.49,20.41,49.6,38.76,114.46,41.57,172.27,62.23,38.74,13.85,110.11,43.85,128.24,82.48,6.52,13.88,2.73,24.61-13.74,18.06-13.98-5.56-35.02-22.29-49.5-30.47-51.94-29.35-98.28-38.36-152.28-58.44-23.14-8.61-44.31-21.94-66.74-32.13,6.49,11.85,16.07,26.31,28.45,32.59,20.18,10.24,55.57,16.56,78.3,24.36,28.5,9.77,60.99,25.8,88.15,39.37,29.78,14.87,71.01,38.79,85.75,69.86,3.03,6.4,9.86,19.05-2.35,18.66-14.99-.48-37.3-24.72-49.3-34.01-33.68-26.04-76.09-47.82-114.81-65.66-22.88-10.55-47.86-17.76-70.96-27.91,4.91,15.26,20.52,25.09,33.84,32.6,22.56,12.72,45.59,17.91,69.37,26.81,34.12,12.77,66.82,32.52,95.96,54.25,12.56,9.37,40.43,31.89,45.29,46.55,3.7,11.15-5.72,15.59-14.68,10.36-37.72-25.65-75.56-50.99-116.31-71.73-17.15-8.73-36.37-15.78-53-24.81-10.78-5.86-19.71-14.78-31.31-18.92,3.29,10.95,12.96,18.09,22.36,23.55,44.4,25.82,148.3,66.2,168.03,114.02,1.8,4.37,7.66,18.83-1.55,17.8-11.42-1.27-57.32-38.56-71.8-47.11-16.33-9.65-35.86-17.17-51.45-27.43-13.51-8.89-25.32-22.06-39.64-30.05-1.88,2.35,15.93,34.46,19.55,38.25,8,8.39,25.11,13.03,35.57,18.46,35.12,18.23,86.52,46.09,111.84,76.19,2.33,2.77,11.54,13.71,7.08,16.83-1.21.63-2.51.61-3.83.55-7.07-.32-23.39-15.11-30.25-19.55-28.93-18.75-67.52-44.17-99.26-56.35-2.7-1.04-5.26-2.33-8.29-1.97,9.22,21.63,36.03,27.07,55.02,38.45,18.41,11.03,57.2,38.12,70.3,53.97,5.28,6.39,18.09,24.54-.26,20.8-8.86-1.81-27.96-22.3-35.94-28.91-16.97-14.06-42.5-34.15-61.78-44.12-2.58-1.33-4.7-2.9-7.89-2.37,9.35,30.68,46.81,32.39,68.64,52.92,8.39,7.89,38.37,46.49,42.1,56.25,4.74,12.41-7.21,9.37-14.28,4.54-6.39-4.36-9.29-10.68-14.31-15.95-16.03-16.82-33.91-36.45-54.57-46.98-.99.76-1.59,1.38-1.71,2.71-.73,8.39,28.69,34.72,35.71,41.08,11.43,10.37,45.25,34.84,49.77,47.48,3.23,9.04-2.55,14.7-11.42,10.34-17.73-8.71-27.96-31.9-43.73-43.25,2.51,12.7,12.29,23.49,18.55,34.93,9.69,17.72,22.6,43.71,23.63,63.9.28,5.43,1.5,23.46-7.91,20.96-4.26-1.13-8.8-15.11-11.03-19.31-8.3-15.65-20.37-32.57-24.89-49.68-1.39-5.27-3.71-27.1-7.57-29.18-2.47-1.33-1.67,4.74-1.59,5.92.57,7.97,3.68,16.9,4.29,24.89.31,4.06.9,24.31-4.67,24.14-9.35-5.6-6.15-21.04-7.33-30.51-2.51-20.25-9.72-42.17-13.93-62.26l-2.14,10.26c-1.46,13.67-1.33,53.01-8.63,62.4-.73.94-3.22,1.86-3.24,2.43-.04,1.07,11.15,9.33,9.7,11.33-12.67,4.81-25.08,10.35-38.07,14.35-10.96,3.37-47.2,15.63-52.96,1.6-5.96-14.53,22.07-25.12,32.12-28.92,11.39-4.32,23.75-7.83,35.44-10.63l4.01,3.09c-5.07-17.04-6.21-34.73-5.44-52.46,1.18-27.46,10.79-57.54,2.52-84.54-.55-1.8-1.71-5.94-3.53-6.72-.43,14.2.53,28.52.03,42.72-.63,18.19-2.96,58.31-11.71,73.67-2.74,4.81-4.11,1.47-6.04-1.98-20.47-36.55,4.67-108.7-6.6-151.17-.37-1.39-1.03-5.19-2.7-5.38-3.79,9.61-1.36,19.8-2.19,29.7-.81,9.73-3.33,19.52-4.29,29.21-1.91,19.24-1.69,38.88-5.95,57.81-1.5,6.67-4.52,23.1-13.83,20.31-7.47-2.24-10.68-31.9-11.44-39.36-4.78-46.6,17.96-82.48,16.12-128.51l-2.19-9.13c-2.82,7.96-1.32,16.35-2.31,24.17-3.24,25.61-14.71,64.07-23.91,88.48-3.37,8.95-15.31,40.42-25.12,18.11-9.19-20.88.22-51.33,3.65-73.08,1.61-10.23,1.66-20.62,3.7-30.88,4.97-25.03,28.08-69.36,24.28-91.92-.24-1.44-5.66-14.28-6.24-14.84-1.81-1.75-1.82.4-2.18,1.57-2.27,7.42-1.99,17.06-3.99,25.21-6.83,27.84-20.92,56.33-28.1,85.37-4.83,19.53-6.64,66.58-18.69,79.65-10.54,11.44-15.52-2.41-17.83-11.32-12.41-47.76,6.45-102.7,23.52-147.25,8.09-21.13,26.38-52.36,22.13-74.54-2.5-13.04-11.76-26.92-20.78-36.49-3.74,15.4-3.06,32.01-5,47.94-5.19,42.49-20.03,79.44-27.66,120.39-4.96,26.65-5.32,57.59-11.83,83.27-6.53,25.76-15.36,15.28-19.46-3.94-11.77-55.15-.32-118.26,15.84-171.5,7.45-24.53,31.81-79.27,27.86-102.38-1-5.87-8.61-19.56-12.72-24.03-9.78-10.62-5.56,2.26-5.36,7.52,1.85,48.79-22.25,111.7-32.15,160.3-7.87,38.65-8.25,81.3-17.03,119.13-1.82,7.82-4.95,19.16-15.13,17.25-6.28-1.18-7.78-18.98-8.13-24.32-2.11-31.89,2.68-79.2,7.71-111.14,7.42-47.21,26.33-95.41,37.58-141.8,5.55-22.86,13.92-54.31-2.62-73.94-3.44,9.98-.85,21.35-1.63,31.86-.36,4.9-1.72,10.79-2.68,15.69-13.97,71.98-45.3,145.37-50.25,217.75-.8,11.69,2.12,52.98-13.76,56.51-16.72,3.72-17.04-23.56-16.55-33.87,4.27-89.78,37.48-157.84,60.02-241.48,7.69-28.52,12.72-62.58-1.63-89.68l-2.02,8.23c-2.53,93.37-47.89,178.4-60.51,269.09-2.54,18.22-1.83,44.37-6.93,61.15-3.83,12.6-18.45,12.81-24.05.9-19.43-41.27,7.33-110.77,20.81-152.19,14.43-44.36,34-88.71,44.28-134.02,4.08-18,15.81-66.91,10.57-82.3-1.28-3.75-12.36-22.13-15.11-23.8-2.15-1.31-1.06,1.14-1.12,1.58-1.15,7.7.5,12.59.64,19.44,1.02,50.98-17.69,116.88-33.01,165.92-12.77,40.88-33.91,84.66-39.3,127.12-1.82,14.34-.14,34.77-8.97,47.23-12.34,17.42-22.36-17.46-24.17-26.26-12.07-58.67,24.88-159.1,50.83-212.93,3.81-7.9,10.42-16.42,13.73-24.09,10.45-24.19,14.14-49.86,19.76-75.34,4.96-22.5,12.23-28.96,3.83-53.52-.88-2.58-9-22.81-11.74-13.83-.81,8.56-1.65,17.2-2.33,25.76-3.43,42.95-21.97,93.96-36.73,135.09-15.32,42.66-38.46,86.23-46.17,131.05-1.67,9.69-5.96,68.5-13.93,70.39-6.47,1.53-12.27-19.94-13.11-24.53-14.56-79.82,25.56-144.7,54.25-215.33,15.49-38.14,43.72-107.38,38.27-147.34-.22-1.64-4.55-23.26-8.51-19.04-2.47,7.3-.03,14.27.04,21.02.69,68.9-56.04,150.62-74.3,218.64-3.13,11.67-6.59,42.39-16.57,48.27-9.67,5.7-14.03-3.99-15.86-12.14-6.52-29,1.41-53.56,12.48-79.86,29.79-70.8,86.81-148.95,75.71-228.78-.2-1.42-1.66-9.49-3.68-6.08-1.45,2.45-2.45,16.17-2.67,20.02-1.52,25.97-.05,39.1-8.93,64.55-14.83,42.5-38.15,77.29-56.85,117.14-2.55,5.43-9.64,28.55-14.89,29.48-3.39.61-5.87-8.4-5.83-11.21.51-34.22,42.2-94.73,55.67-129.21,9.84-25.19,21.6-87.92,16.47-113.69-.86-4.34-2.02-10.48-6.18-12.72-2.9,17.2-1.59,34.92-4.65,52.09-6.92,38.78-28.44,80.22-48.13,113.97-1.75,3-4.31,7.12-6.43,9.78-1.02,1.27-1.23,2.96-3.48,2.46l10.04-62.89c17.22-42.05,38.16-86.35,34.25-133.22-.32-3.86-1.06-11.25-4.3-13.52-2.15,6.36.19,13.2-.08,18.74-1.07,21.73-8.78,52.12-15.85,72.86-2.13,6.26-4.04,13.87-8.92,18.62,1.55-19.68,4.63-39.26,6.46-58.9,1.8-19.37,3.85-39.14,5.39-58.36,1.47-18.28-4.62-35.26-1.05-53.47,6.6,5.05,12.28,11.33,19.53,15.58,30.92,18.14,74.6,6.91,102.01,28.75,25.01,19.93-14.91,14.2-25.6,12.63-16.46-2.42-39.48-7.32-54.21-14.95-4.76-2.46-27.53-20.87-30.93-18.23Z" fill="#1c6065"/><path d="M1926.03,184.4c-2.35-2.27-3.13,6.01-3.21,7.04-5.31,61.85,51.9,129.34,77.64,182.77,18.76,38.92,48.62,112.28,33.41,154.14-4.93,13.56-15.86,16.15-21.9,1.85-6.16-14.58-9.23-40.85-13.83-57.49-6.6-23.88-15.53-47.87-25.78-70.4-13.03-28.63-31.66-56.4-43.6-85-8.29-19.87-14.64-42.87-20.02-63.74-2.58,1.54-3.21,6.81-3.81,9.69-2.36,11.41-3.18,24.21.28,35.46,31.81,59.2,63,121.42,79.96,186.96,4.36,16.84,7.35,34.74,7.87,52.1-4.5-2.69-28.28-7.9-29.72-10.8-3.91-20.68-6.26-42.21-12.14-62.43-6.76-23.25-16.75-52.43-25.41-75.09-8.24-21.53-19.59-41.94-27.84-63.48-1.82.47-2.74,4.47-3.11,6.05-8.98,38.37,29.99,94.51,43.13,130.62,7.31,20.08,12.42,41.12,16.19,62.15-9.35-2.15-21.6-3.05-30.52-5.67-1.32-.39-2.66-.67-3.48-1.92-10.27-44.93-32.49-86.12-39.49-131.8-2.32-.33-1.74-.08-2.41,1.37-1.09,2.38-2.63,9.86-2.74,12.49-.73,18.27,22.27,76.56,28.39,98.53,1.37,4.91,4.35,13.35,4.84,17.87.22,2.05-.81,2.23-2.16,1.06-1.5-1.31-9.57-32.5-11.57-38.14-8.85-24.89-21.55-48.48-37.7-69.35,4.71-5.9,5.01-12.93,8.23-19.5-4.04-.64-13.27,10.24-15.59,9.69-2.59-3.47-20.33-26.21-18.99-28.06,16.67-6.29,36.92-12.51,46.68-28.44,7.39-12.07,9.79-26.81,10.59-40.73-22.34,18.77-44.49,37.58-68.75,53.91l-23.08-30.69c19.97-11.08,41.61-19.18,61.61-30.22,22.01-12.16,39.23-21.1,41.99-48.78.3-2.99,1.32-11.04-3.12-7.45-3.76,3.05-7.26,9.52-11.31,13.54s-10.72,9.29-15.33,12.76c-24.74,18.62-54.48,33.02-80,50.84l-1.29.05-18.48-25.32c12.31-6.89,23.74-15.35,36.01-22.33,18.16-10.33,37.58-18.91,55.48-29.89,14.24-8.73,39.99-26.45,44.99-42.55,1.01-3.25,1.59-7.18,1.83-10.59-11.74,8.75-20.31,20.28-32.27,28.78-21.23,15.08-49.42,31.2-72.22,44.49-9.37,5.46-29.03,18.24-38.11,21.34-1.24.42-2.93,1-4.16.29-1.02-.59-13.7-17.8-14.08-18.92-.26-.76-.46-1.64-.04-2.37.75-1.29,22.71-12.51,26.16-14.36,26.07-13.98,53.88-26.12,79.64-40.32,23.69-13.05,46.31-29.34,61.03-52.41,12.4,19.43,25.06,38.48,40.5,55.66,4.1,4.56,11.83,10.08,15.01,14.17,4.27,5.52,10.77,22.58,15.1,30.29,31.31,55.75,82.21,120.41,89.58,185.99,3.29,29.25-17.12,26.91-28.68,4.91-13.32-25.33-18.01-56.23-32.05-83.58-21.64-42.14-75.97-103.93-84.37-145.81-.98-4.87-2.09-27.63-3.74-29.23Z" fill="#1c6065"/><path d="M1333.87,823.05c2.65-1.28,3.2-5.88,3.81-8.61,2.48-11.05,3.08-24.57-.28-35.46-31.59-58.27-61.13-118.35-78.88-182.63-5.03-18.22-8.28-37.53-8.95-56.42,4.5,2.69,28.28,7.9,29.72,10.8,3.91,20.65,6.32,42.25,12.14,62.43,6.68,23.18,16.76,52.5,25.41,75.09,8.24,21.53,19.58,41.94,27.84,63.48,1.44.03,2.32-3.23,2.66-4.34,11.17-36.28-30.02-97.53-42.68-132.33-6.24-17.16-14.03-42.69-16.13-60.61-.32-2.72,2.68-1.57,4.52-1.26,8.73,1.46,17.74,5,26.81,5.61l2.99,2.42c4.2,15.39,8.47,30.82,13.48,45.95,5.63,17,13.88,34.72,18.6,51.65,1.37,4.92,5.84,32.28,7.04,33.5,1.43,1.45,1.89-.25,2.4-1.37,1.48-3.25,1.36-6.68,1.94-9.96.32-1.78-.7-1.87,2.11-1.63l20.55,36.72c-25.51,7.98-33.66,35.16-34.57,59.45l49.21-39.95,1.55-.03c5.89,9.48,14.86,17.28,22.69,25.39-14.14,8.27-29.63,14.02-43.93,21.97-21.69,12.06-38.67,21.06-41.28,48.4-.42,4.42-1.27,12.04,4.21,6.38,3.84-3.97,6.44-8.77,10.77-13.01,22.53-22.04,55.45-35.66,80.72-54.42l28.43,19.86c-10.39,6.02-20.14,13.16-30.61,19.09-18.41,10.43-38.06,19.11-56.17,30.28-14.08,8.69-39.35,26.19-44.3,42.15-1.01,3.25-1.59,7.18-1.83,10.59,12.88-10.31,22.32-22.04,36.17-31.36,33.78-22.73,71.24-42.74,106.44-63.28,4.23-1.3,17.24,6.22,22,8.38,2.9,1.32,6.17,2.72,9.37,3.06.43,1.98-.61,2.11-1.81,3.05-8.35,6.53-27.28,15.42-37.45,20.9-49.21,26.5-107.82,45.44-140.86,92.61-10.29-1.29-20.47-5.34-30.61-7.96-11.6-36.92-28.12-72.45-47.75-105.7-17-28.79-36.8-55.41-51.51-85.73-10.81-22.28-28.54-64.4-30.39-88.47-2.17-28.31,18.23-23.45,28.96-3.03,13.38,25.44,17.92,56.2,32.05,83.58,21.88,42.41,73.27,100.16,83.46,142.4,2.42,10.02,1.48,20.48,3.89,29.65.24.91,1.02,4.86,2.89,3,3.09-3.07-.46-29.24-1.41-34.78-10.34-60.01-50.79-103.73-76.23-157.19-18.46-38.79-46.84-109.39-32.61-151.18,4.74-13.92,15.86-17.53,22.18-2.65,6.21,14.63,9.22,40.8,13.83,57.49,6.64,24.05,15.44,47.73,25.78,70.4,13.05,28.61,31.67,56.41,43.59,85,8.21,19.69,14.06,42.14,20.02,62.66Z" fill="#1c6065"/><path d="M1611.58,847.92c.18,2.24-1.41,3.82-2.69,5.41-29.92,37.45-103.26,70.91-147.56,89.1-29.99,12.31-61.25,19.39-89.3,36.05l-27.36,17.47c-.59-5.9-8.43-14.53-9.59-19.17-.62-2.49,2.46-4.61,4.16-6.23,24.48-23.36,80.68-54.11,111.67-70.96,40.88-22.21,84.97-38.47,123.89-64.2,12.6,2.3,24.15,9.6,36.77,12.52Z" fill="#1c6065"/><path d="M1359.8,1037.03c1.03-4.03-8.56-24.39-7.5-25.86,32.11-14.69,62.57-32.7,94.64-47.48,39.4-18.16,81.58-31.54,117.44-56.55,14.76-10.29,27.5-23.37,42.98-32.67,6.73-4.04,18.87-13.64,17.11.9-1.43,11.74-20.2,33.74-28.53,42.79-43.26,47.04-116.88,66.83-174.5,91.33-17.47,7.43-41.75,21.98-58.34,27.03-1.1.34-2.1.69-3.28.5Z" fill="#1c6065"/><path d="M1890.38,87.14c.02,5.88,6.11,19.46,5.44,24.25-.42,3.03-6.27,6.68-8.79,8.58-44.93,33.83-111.18,68-162.68,91.27-2.64,1.19-11.45,5.85-13.31,5.08l-28.12-31.41,9.38-6.8c37.78-19.56,76.43-39.9,116.76-53.98,23.33-8.15,39.28-12.55,61.52-24.93,2.54-1.41,18.86-12.75,19.79-12.07Z" fill="#1c6065"/><path d="M1882.81,39.59l3.87,28.1c-31.44,15.58-61.99,33.13-93.9,47.73-40.33,18.46-83.66,31.89-119.55,58.82-2.63.7-17.06-18.31-20.57-20.65,18.09-19.36,42.9-32.19,66.59-43.61,35.59-17.15,73.32-29.29,109.52-45.02,18.25-7.93,36.04-16.96,54.04-25.38Z" fill="#1c6065"/><path d="M1878.49-.39l2.89,26.54c-48.06,25.1-102.28,37.75-149.5,65.12-9.81,5.68-30.39,22.03-40.91,21.83-8.95-.17-10.63-7.19-8.13-14.67,9.31-27.8,51.64-46.65,76.51-56.41,39.23-15.39,79.72-27.54,119.14-42.41Z" fill="#1c6065"/><path d="M1368.44,1075.93l-4.2-26.89c45.21-21.64,94.95-34.1,138.92-58.29,10.92-6.01,38.75-27.13,49.42-26.1,18.37,1.77,1.93,24.1-3.71,30.75-27.41,32.32-86.08,48.27-125.85,62.19-18.11,6.34-36.45,12.12-54.59,18.35Z" fill="#1c6065"/><path d="M1270.09,901.94c-.74.8-9.4-6.82-10.16-7.66-2.79-3.08-6.41-8.86-9.09-12.53-31.77-43.54-56.64-93.15-91.5-134.36-4.86-5.74-17.34-16.6-20.23-21.92-9.07-16.68-12.87-50.51-7.63-68.58,2.25-7.75,14.28-35.44,24.57-21.84,3.77,4.97,5.81,34.57,7.39,43.4,5.42,30.28,16.45,65.12,33.36,90.91,7.13,10.88,16,19.83,22.67,31.36,13.9,24.02,31.59,56.29,42.89,81.39,1.04,2.32,8.44,19.05,7.71,19.83Z" fill="#1c6065"/><path d="M2017.9,684.73l-54.85-13.23c-12.04-25.61-23.87-51.33-38.29-75.71-2.17-3.66-9.55-12.66-10.34-15.59-1.87-6.95-1.65-18.9-2.55-26.63-.74-6.36-1.81-12.78-3.1-19.04,1.15-1.06,7.54,2.66,8.97,3.45,40.64,22.3,83.55,99.86,99.33,142.74.5,1.35,1.15,2.46.84,4.01Z" fill="#1c6065"/><path d="M1338.18,927.9c.08-.12,1.71-.24,2.66-1.08,47.26-41.98,104.52-67.83,159.08-98.17,4.45-2.48,19.9-13.25,23.31-12.95,1.48.13,3.98,1.42,5.7,1.95,3.28,1,31.87,10.73,31.84,12.44-32.33,18.29-65.71,34.71-99.01,51.18-35.77,17.69-73.4,31.96-104.83,57.31-4.11-3.8-14.11-5.31-17.6-8.06-.79-.62-1.86-1.61-1.14-2.61Z" fill="#1c6065"/><path d="M2078.41,706.35c-7.05-3.15-14.12-6.67-21.32-9.47-4.73-1.84-19.01-4.78-21.35-7.83-13.66-31.78-26.2-64.76-46.14-93.27-10.31-14.75-23.36-27.47-32.67-42.98-4.74-7.89-14.08-19.87,2.66-16.71,10.62,2.01,31.46,19.35,39.95,27.05,40.47,36.71,59.89,93.25,78.86,143.2Z" fill="#1c6065"/><path d="M2011.43,252.48l26.41,13.02c11.32,17.32,22.09,35.32,34.75,51.7,7,9.06,27.47,28.19,31.24,35.76,6.02,12.1,11.55,42.29,10.25,55.65-.93,9.56-9.84,37.97-22.06,37.28-10.18-.58-9.3-25.28-10.5-32.79-4.87-30.45-12.31-60.67-26.3-88.25-12.85-25.34-34.68-44.65-43.78-72.38Z" fill="#1c6065"/><path d="M1096.12,319.48c1.52-1.49,33.88,16.15,38.31,18.41,11.39,30.8,22.79,61.89,39.31,90.37,5.71,9.86,22.81,31.2,21.78,41.86-1.76,18.24-24.16,1.84-30.75-3.72-18.81-15.85-27.98-34.61-37.04-56.97-11.9-29.36-21.87-59.84-31.6-89.96Z" fill="#1c6065"/><path d="M1473.02,46.37c14.42-1.54,39.87,1.9,50.54,12.63,11.85,11.92.03,16.31-11.14,18.12-37.73,6.13-66.13,8.93-101.47,26.04-3.88,1.88-21.2,12.78-22.71,13.01-3.3.52-11.66-13.52-12.16-16.68-.48-3.06-.62-16.51,1-18.32s22.34-10.88,26.3-12.61c18.7-8.17,49.71-20.07,69.65-22.2Z" fill="#1c6065"/><path d="M1904.43,149.79c-.08.12-1.71.24-2.66,1.08-46.88,41.64-105.87,69.3-160.51,99.01-2.02.91-3.06-.97-4.36-2.25-1.9-1.86-15.85-18.31-16.13-19.54-.38-1.7,1.41-2.19,2.45-2.86,15.26-9.87,40.55-20.48,57.64-28.81,36.07-17.55,73.02-32.01,104.83-57.31,4.11,3.8,14.11,5.31,17.6,8.06.79.62,1.86,1.61,1.14,2.61Z" fill="#1c6065"/><path d="M2141.09,742l-41.09-24.56c-8.16-20.17-15.98-40.6-26.42-59.74-6.05-11.11-27.52-39.37-26.48-50.13,1.45-15.08,17.68-6.09,24.74-1.08,22.29,15.81,33.09,37.22,43.05,61.77,9.78,24.1,17.94,49.09,26.2,73.75Z" fill="#1c6065"/><path d="M1752.06,931.14c.36.42.43,1.54-.7,2.14-5.71,3.02-18.72,6.73-25.48,8.94-29.31,9.58-61.84,19.56-92.44,9.74-15.58-5-18.46-16.99-1.9-23.03,15.69-5.72,38.87-8.77,55.92-13.24,5.99-1.57,26.73-9.36,30.59-9.31,3.27.04,27.33,19.98,31.34,23.7.85.79,2.56.95,2.67,1.07Z" fill="#1c6065"/><path d="M1487.31,147.64c-.54-.7,1.77-1.97,2.48-2.36,6.61-3.59,19.36-7.31,26.94-9.8,29.37-9.63,61.77-19.58,92.44-9.74,15.58,5,18.46,16.99,1.9,23.03-21.55,7.86-49.54,8.86-71.37,17.89-16.69-8.26-34.35-14.43-52.4-19.02Z" fill="#1c6065"/><path d="M1837.43,1009.99c-25.19,9.01-56.58,23.67-83.79,21.67-9.63-.71-30.12-6.9-36.15-14.64-13.77-17.68,20.35-16.51,29.56-17.98,12.97-2.07,26.01-4.53,38.75-7.72,4.96-1.24,18.87-6.95,22.12-7.02,1.56-.03,3.88,2.02,5.18,3.04,6.13,4.8,17.86,14.68,23.19,20.03.89.89,1.55.95,1.15,2.62Z" fill="#1c6065"/><path d="M1520.57,85.27c29.93-3.35,26.63,17.49,4.22,29.07-21.2,10.95-47.54,14.53-69.36,24.73-4.51-.89-43.78-9.15-43.73-11.42,26.46-15.03,55.88-28.66,85.35-36.74,6.96-1.91,16.6-4.87,23.53-5.65Z" fill="#1c6065"/><path d="M1696.95,60.12c.5,1.89-.79,2.16-1.61,3.24-5.05,6.67-13.79,18.16-19.44,23.78-1.3,1.3-2.29,2.95-4.36,3.2-26.1-.51-51.98,1.8-77.73,5.43l-18.95-15.68c39.44-12.23,80.97-17.05,122.1-19.98Z" fill="#1c6065"/><path d="M1560.79,176.84c27.36-6.74,57.38-13.9,85.37-7.04,38.52,9.45,15.38,22.45-9.2,25.39-13.66,1.63-27.61.56-41.08,3.83-2.37-2.32-36.36-20.53-35.09-22.17Z" fill="#1c6065"/><path d="M1374.92,67.68c1.65-5.32-3.07-29.36-.02-31.89,1.82-1.52,26-7.69,30.26-8.64,8.62-1.92,54.64-9.82,58.98-3.85,3.44,4.72-2.92,7.66-5.99,9.29-20.38,10.83-52.62,23.67-74.63,32.36-1.44.57-7.86,3.52-8.6,2.73Z" fill="#1c6065"/><path d="M1874.18,1026.21l.77,12.5c-.33,1.79-25.67,8.88-29.72,9.89-15.34,3.84-33.62,7.44-49.41,7.86-10.1.27-28.23-.97-11.38-11.38l64.82-28.07c8.27,3.02,15.45,10.15,24.93,9.2Z" fill="#1c6065"/><path d="M1607.26,206.02c22.53-4.49,45.52-8.27,68.66-6.53,5.37.4,20.42,2.57,23.07,7.18,4.23,7.38-2.73,12.28-9.02,14.51-13.3,4.7-32.44,4.54-46.49,8.67l-4.19-1.3-32.02-22.53Z" fill="#1c6065"/><path d="M1163.1,815.49l-38.27-29.26c-.91-17.62-18.56-47.53-16.63-63.92.78-6.64,5.61-7.1,10.08-3.01,7.48,6.86,23.82,45.19,28.81,56.56,5.71,13.01,10.91,26.38,16.01,39.63Z" fill="#1c6065"/><path d="M1622.39,910.58c4.11-7.59,5.25-20.26,8.87-27.32.7-1.36,1.14-2.18,2.71-2.7,3.28-1.07,32.84-5.87,35.14-5.45l31.06,18.72c-24.38,10.59-51.29,15.48-77.78,16.74Z" fill="#1c6065"/><path d="M2089.23,284.9c4.87,2.22,27.99,8.54,29.69,11.91,2.74,15.45,10.14,29.7,13.39,44.96,1.06,4.96,4.13,15.25-.54,18.71-5.9,4.37-15.28-13.78-17.5-17.96-5.26-9.91-10.92-22.72-15.51-33.12-1.28-2.91-10.44-23.55-9.53-24.5Z" fill="#1c6065"/><polygon points="1662.37 103.35 1638.02 137.93 1609.42 110.36 1662.37 103.35" fill="#1c6065"/><path d="M1657.51,238.43h20.53c3.22,0,13.11,2.68,16.76,3.77,6.07,1.81,24.81,8.71,13.93,16.12-2.49,1.69-17.27,5.9-19.91,5.56-4.92-.64-25.68-20.69-32.41-23.28l1.1-2.17Z" fill="#1c6065"/><path d="M1947.66,666.35c-12.21-1.28-29.86-15.17-31.36-27.52-1.2-9.89.22-22.7-1.05-32.98l32.41,60.51Z" fill="#1c6065"/><path d="M1218.21,858.72l-41.07-32.17c-2.61-3.59-10.83-20.51-6.54-23.56,6.97-2.39,10.85,4.9,15.18,8.75,10.11,16.13,24.51,29.3,32.44,46.98Z" fill="#1c6065"/><path d="M1704.52,275.18c10.55-.95,33.66-3.03,42.93,1.9,13.67,7.27-18.61,14.11-23.96,13.25-3.13-.5-16.07-12.21-18.97-15.14Z" fill="#1c6065"/><path d="M2042.75,535.61c-.82,10.17,2.25,20.73,1.14,30.85-.12,1.09-.52,3.73-1.67,3.71-1.24-.03-16.69-13.43-19.99-14.61-.3-1.22,15.11-16.67,17.28-18.34,1.08-.83,1.37-2.1,3.24-1.61Z" fill="#1c6065"/><path d="M1345.58,943.93c-3.49,2.21-17.07-3.62-21.44-4.72-10.42-2.63-22.46-1.68-27.02-13.49,8.35,3.1,45.98,6.32,49.2,14.09.45,1.09-.15,3.75-.75,4.13Z" fill="#1c6065"/><path d="M1740.18,303.28c5.88-.19,26.03.82,28.65,6.49,2.26,4.9-5.27,10.82-10.31,9.26-3.4-1.05-14.74-12.79-18.33-15.75Z" fill="#1c6065"/><path d="M1340.18,561.7c1.38,1.35,3.3,30.87,4.47,35.5l-10.79-35.13c-1.28-2.7,6.08-.61,6.33-.37Z" fill="#1c6065"/><path d="M1653.73,866.29c1.84,1.72-.4,1.84-1.57,2.18-5.36,1.57-11.34,1.96-16.79,3.2l2.17-11.88,16.2,6.49Z" fill="#1c6065"/><path d="M16.21,0c3.95,4.74,10.03,9.42,15.64,11.92,22.48,10.02,53.52,15.75,77.53,24.05,9.63,3.33,19.25,7.32,28.6,11.39,42.74,18.59,122.69,53.46,143.4,96.5,2.39,4.98,9.19,17.36.96,19.1-14.63,3.08-40.85-24.93-52.25-33.73-33.81-26.09-78.66-49.53-117.73-67.06-21.12-9.47-44.14-16.14-65.46-25.33-2.83-.66-1.22,2.53-.66,3.92,12.2,30.39,92.98,49.7,122,62.79,34.03,15.35,97.86,55.32,117.3,86.94,2.69,4.38,6.21,9.06,3.07,14.37-3.84,6.48-11.67,2.76-16.66.31-15.19-7.45-35.49-24.68-50.92-34.45-38.34-24.27-74.96-39.22-114.08-59.9-11.54-6.1-21.25-15.33-33.45-20.03,3.63,10.97,12.71,18.02,22.36,23.55,44.77,25.67,148.82,66.57,168.35,114.78,6.67,16.45,3.93,21.2-12.43,12.42-20.63-11.07-40.32-30.06-61.24-42.5-27.5-16.34-57.04-27.09-80.42-50.34l-10.7-6.59c5.85,14.35,12.73,34.33,26.28,42.89,8.07,5.09,18.28,7.79,26.73,12.17,35.7,18.49,88.27,46.75,113.97,77.3,2.35,2.79,11.52,13.68,7.08,16.84-6.28,4.46-28.21-15.2-34.08-19.02-28.95-18.81-67.45-44.14-99.26-56.35-2.7-1.04-5.26-2.33-8.29-1.97,9.18,21.52,36.08,27.15,55.02,38.45,18.33,10.94,57.26,38.2,70.3,53.97,5.12,6.2,17.81,23.02.69,20.97-9.02-1.08-34.62-27.35-43.37-34.49-14.82-12.08-38.61-30.09-55.3-38.72-2.58-1.33-4.7-2.9-7.89-2.37,7.4,27.61,40.27,31.47,60.87,46.64,13.41,9.88,39.4,43.37,47.64,58.26,3.7,6.68,6.79,15.18-5.07,12.63-9.57-2.06-15.19-13.35-21.29-19.77-6.97-7.34-47.03-48.5-54.57-46.98-.99.76-1.59,1.38-1.71,2.71-.72,8.3,28.75,34.79,35.71,41.08,11.17,10.1,47.22,36.23,50.34,49.15,1.08,4.5-1.48,10.6-6.53,10.7-13.59.26-37.55-38.05-49.18-45.27,1.04,10.23,9.36,18.67,14.22,27.37,11.55,20.69,26.8,48.69,27.96,72.54.26,5.26,1.43,21.27-6.83,19.85-5.9-1.01-10.33-16.11-13.19-21.44-8.17-15.24-19.36-30.66-23.81-47.52-1.31-4.96-3.97-27.3-7.57-29.18-2.48-1.3-1.67,4.74-1.59,5.92,1.12,15.69,9.67,34.27.49,49.19-10.53-5.16-7.1-21.69-8.37-31.58-2.57-19.98-9.58-41.53-13.76-61.35l-2.14,10.26c-1.82,16.77-1.27,35.1-4.65,51.54-1.12,5.44-1.95,10.54-7.22,13.29,20.11,19.49,39.87,38.76,62.75,55.02,3.25,2.31,10.62,5.53,12.92,7.91,5.46,5.64,10.15,18.07,16.99,23.78l3.48,41.35c-42.66-19.53-71.16-63.78-91.69-104.43-15.82-31.32-21.46-52.49-19.59-88.45,1.17-22.41,7.22-44.34,5.38-66.99-.15-1.82-4.42-23.88-6.46-21.09-.46,14.92.57,29.97.03,44.89-.65,18.12-2.24,40.28-7.06,57.78-3.19,11.61-5.97,24.97-12.97,6.46-11.33-29.99-2.77-72.56-1.58-104.22.59-15.76.56-31.97-4.39-47.05-1.55-.26-1.46,1.88-1.82,3.01-2.77,8.82-.66,17.74-1.42,26.69-1.97,23.15-4.5,51.53-7.85,74.28-1.59,10.8-4.31,30.1-14.83,34.87l32.27,25.01c13.94,32.45,26.97,66.28,47.27,95.37,6.26,8.97,41.67,49.52,39.25,57.8-.79,2.7-6.7,1.83-8.86,1.49-10.87-1.73-32.19-19.47-40.79-27.28-46.08-41.81-63.12-106.79-87.5-162.13-.42-1.39.23-2.12,1.59-1.59,1.26.5,11.96,9.22,12.43,8.63-2.13-5.44-4.03-9.98-5.24-15.82-9.76-47.32.54-65.7,9.04-109.52,3.3-17.01,5.45-33.47,2.68-50.8-1.48-.26-1.64,1.93-1.86,2.97-1.56,7.21-.62,14.36-1.51,21.19-3.39,26.03-15.43,67.99-25.27,92.52-3.73,9.29-15.02,34.54-23.74,14.05-9.15-21.48.14-50.86,3.64-73.06,1.59-10.11,1.59-20.49,3.69-30.89,5.05-24.95,28.05-69.54,24.28-91.92-.91-5.4-5.43-9.52-6.24-14.85-2.79-.31-1.71,0-2.18,1.57-2.32,7.76-1.98,16.93-3.98,25.21-6.68,27.66-20.95,56.43-28.1,85.37-5.36,21.72-5,46.4-12.18,66.71-3.57,10.1-11.32,25.26-21.63,11.33v-95.1c5.94-18.59,11.46-37.39,18.35-55.67,8.49-22.52,29.3-58.45,24.39-81.62-2.62-12.38-11.81-27.07-21.12-35.6-2.88,25.33-4.35,50.68-9,75.84-3.02,16.38-6.72,32.85-12.63,48.43V0h16.21Z" fill="#1c6065"/><path d="M808.32,1080.65c1.09-36.99,20.43-71.26,35.81-104.13,21.72-46.42,50.28-91.57,54.95-143.89,1.09-12.18,2.01-30.98-.47-42.74-.13-.62-1.58-6.02-3.32-3.2-1.39,2.25-2.48,16.34-2.67,20.02-.38,7.16.47,14.52.03,21.65-3.44,56.15-41.28,108.5-64.73,157.88-2.46,5.18-11.02,31.07-15.8,31.46-8.96.72-4.49-20.34-3.48-24.81,9.54-42.38,43.93-84.38,56.98-126.73,7.12-23.1,20.45-91.03,9.92-111.55-.71-1.39-1.88-3.09-3.45-3.56-2.9,17.2-1.59,34.92-4.65,52.09-6.78,37.99-28.81,81.7-48.52,114.66-1.67,2.79-4.05,6.61-6.03,9.09-1.02,1.28-1.23,2.96-3.47,2.46,5.12-19.83,4.78-43.46,10.04-62.89,2.94-10.86,10.42-24.13,14.54-35.17,11.28-30.21,27.36-78.17,17.59-109.99-.48-1.55.63-1.9-2.19-1.58-1.6,10.02-.01,19.61-1.1,29.71-1.56,14.54-13.16,65.64-20.7,76.55-.76,1.1-1.66,2.58-3.05,2.88,1.81-19.65,4.63-39.24,6.47-58.9,1.78-19.07,3.75-38.39,5.39-57.29,1.02-11.74-1.29-20.44-2.18-31.28-.61-7.43.67-14.84,1.13-22.19,7.19,5.62,13.45,12.42,21.58,16.77,29.7,15.9,68.66,6.81,96.11,24.92,7.71,5.08,19.86,16.48,2.83,17.78-17.62,1.35-62.71-9.25-78.8-17.46-10.61-5.42-18.93-16.23-30.93-18.23,14.7,29.29,47.81,44.27,79.44,46.45,43.22,2.98,75.72-3.09,117.02,15.9,4.65,2.14,19.86,8.98,19.39,14.92-.35,4.48-7.76,1.67-9.99,1.61-37.75-1-85.49-4.6-121.79-14.36-14.33-3.86-40.33-16.19-53.27-16.98-.87-.05-2.6-.48-2.69.53,9.58,18.06,25.48,20.21,43.92,23.08,44.18,6.89,90.28,9.18,134.77,15.44,9.31,1.31,18.63,2.83,27.71,5.25v23.77c-14.53-2.19-29.02-6.63-43.78-7.55-18.58-1.17-38.57-.02-57.25-1.1-19.31-1.12-38.65-4.08-57.84-5.93,14.49,6.93,30.31,9.75,46.09,12.27,37.31,5.97,75,8.41,112.77,9.88v28.1c-34.1-7.79-70.21-7.1-103.98-15.44-2.85-.7-38.38-12.56-38.68-8.87.05,5.23,7.03,9.08,11.18,11.52,37.54,22.04,89.69,17.96,131.48,24.67v25.94c-11.4-.14-22.72-2.39-34.05-3.23-9.95-.74-21.33-.13-31.19-1.22-7.03-.78-36.78-11.38-40.66-8.5.55,1.67,1.53,3,2.86,4.16,9.64,8.41,47.96,16.76,61.46,18.51,13.78,1.79,28.07.95,41.59,4.34v30.26c-20.61-3.15-44.07-5.16-63.99-11.11-13.17-3.93-23.82-12.01-36.51-16.97,12.58,17.54,36.35,26.29,56.45,32.7,14.42,4.59,29.33,8.14,44.05,11.6v29.18l-75.64-31.33c3.12,10.37,10.67,17.31,19.11,23.56,16.69,12.38,37.24,21.86,56.53,29.38v36.74c-14.28-3.78-23-16.34-35.13-23.77-.76-.24-.67.84-.54,1.62,1.31,8.28,27.72,26.39,35.67,30.79v45.39c-5.58-7.37-8.39-17.28-17.28-21.61l1.07,28.1h-25.94c3.7-22.3,13.1-51.67-4.31-70.24-2.54,10.66-.25,22.07-1.11,32.94-1,12.63-6.36,24.7-7.55,37.3h-22.69c5.04-19.76,12.78-39.31,14.09-59.93,1.08-16.91,1.35-38.74-9.76-52.46-4.02,37.77-8.45,75.69-18.38,112.39h-27.02c6.77-19.32,13.02-38.55,17.63-58.55,4.23-18.34,14.35-60.05,12.61-77.06-.82-8.03-7.28-18.18-12.07-24.67-1.17-1.58-3.84-6.11-5.73-6.15-1.28,15.29,1.51,30.55.57,45.98-1.17,19.31-7.18,41.81-11.59,60.82-4.63,20-10.22,39.81-15.47,59.63h-45.39c5.67-15.13,11.8-31.03,18.68-45.62,3.73-7.91,9.82-15.73,13.18-23.57,10.38-24.28,13.97-49.92,19.66-75.43,5.55-24.88,13.58-34.89.22-61.11-1.42-2.78-6.94-12.17-8.48-4.42-1.45,7.34-1.52,17.03-2.19,24.83-3.69,43.09-21.03,90.69-35.65,131.85-6.4,18.01-13.97,35.55-20.55,53.47h-36.74c17.34-45.97,39.29-89.89,55.41-136.41,10.21-29.46,24.5-68.48,20.11-99.58-.55-3.9-3.08-18.96-7.96-19.05-3.61,12.08.58,24.59-.57,37.28-.81,8.92-4.72,21.7-7.26,30.56-18.47,64.45-56.06,121.56-70.53,187.21h-31.34Z" fill="#1c6065"/><path d="M0,933.68c6.74-.1,13.73,3.5,20.11,4.21,4.36.48,12.73-.83,15.93.28,1.66.58,1.68,3.09,3.63,3.93,11.01,4.76,47.18,8.06,62.12,11.37,41.58,9.2,84.49,22.76,121.56,43.78,20.3,11.52,37.61,23.51,44.7,47.16,3.57,11.92,3.16,27.32-13.16,18.56-8.41-4.51-19.43-15.64-28.04-21.67-41.42-28.98-66.79-36.23-115.76-45.26-25.37-4.68-50.66-16.57-76-22.36l-3.34,5.93c4.12,3.71-.37,6.46-.2,8.45.3,3.64,2.62,7.52,5.99,9.13,7.31,3.49,20.94,6.42,29.24,8.59,59.37,15.49,110.69,22.35,165.22,54.15,9.21,5.37,20.93,11.26,26.29,20.72h-57.27c-49.6-30.18-110.13-36.03-165.95-48.28-.71.97-4.74,5.23-4.74,5.6,0,.41,2.05,1.67,2.57,2.78.63,1.32.51,3.16,1.19,4.21,5.29,8.13,106.94,24.08,121.53,35.7H43.23l-41.6-21.62c2.4,8.23,9.35,14.31,13.5,21.62H0v-51.87c6.65,3.02,14.18,10,21.63,9.17-1.63-2.39-.23-8.31-2.15-9.74-2.78-2.08-15.51-4.22-19.48-6.99v-37.82c6.17,2.73,12.41,6.29,19.45,5.39.46-1.78-1.84-.49-2.17-1.77-1.43-5.53,2.58-4.74,3.15-6.47.96-2.89-2.31-6.83,2.25-9.59,0-1.74-19.73-7.22-22.67-9.18v-28.1Z" fill="#1c6065"/><path d="M0,806.16c31.17,3.64,63.85,13.75,89.6,31.97,6.74,4.77,20.18,18.25,2.79,16.66-12.44-1.14-32.27-7.83-45.71-10.48-2.46-.48-14.29-3.24-15.34-2.48l2.79,9.84c31.24,7.75,62.57,16.58,92.57,28.24,8.62,3.35,38.59,15.24,40.59,24.31,1.04,4.72-5.03,6.88-8.82,6.7-12.97-4.05-25.14-10.09-38.29-13.69-27.97-7.65-58.22-10.07-86.16-18.64-2.68,1.58-.05,3.17-.7,5.59-1.09,4.06-4.67,5.67,3.36,7.93,33.85,9.52,69.88,12.72,104.63,23.97,30.18,9.77,89.33,39.24,108.29,64.62,6.15,8.24,2.82,12.17-6.68,8.83-57.85-21.79-116.09-50.15-176.79-63.1-7.15-1.53-24.83-5.88-31.06-5.59-2.31.11-7.02,2.19-5.63,4.72.53.97,2.75-.18,1.91,2.69l-4.32.02c.4,2.27,5.11.54,4.31,4.31-1.92-.61-4.61,1.22-5.87,1.13-.68-.05-.53-2.24-1.21-2.26-1-.03-2.34,1.44-3.53.98-.37-.15-6.05-6.07-1.26-5.79.04-.42-5.62-1.19,0-3.23-1.78-.68-1.89-4.34-2.32-4.71-.65-.57-14.74-1.07-17.14-1.25v-31.34c7.65.29,14.97,3.04,22.69,2.15-.06-2.24-3.16-.16-4.87-2.13-.67-.77-1.8-4.79-1.53-5.82l4.24-1.75,1.07,5.39c.23-3.2,1.7-4.55,4.35-5.94-8.55-1.98-16.94-5.32-25.95-4.86v-27.02c3.5-.8,13.14,2.78,15.51,2.06,1.45-.44,1.69-2.8,2.92-3.62,1.77-1.18,5.62-.52,6.42-3.83-2.84-1.43-3.52,2.15-3.77,2.18-4.59.5-2.71-3.7-5.61-5.23-3.64-1.92-11.39-.83-15.47-3.44v-28.1Z" fill="#1c6065"/><path d="M1080.65,409.56v106.98c-9.61,1.02-26.56,20.9-27.05,29.7-.08,1.49-.1,2.1,1.62,1.61,3.23-.92,9.74-5.92,13.89-7.73,3.75-1.64,7.84-2.4,11.54-4.13v25.94c-20.23,5.05-46.3,8.22-56.19,29.17,18.91-5.26,36.27-14.52,56.19-16.2v20.53c-19.29,2.22-37.06,6.39-55.08,13.54-2.76,1.1-8.58,5.22-10.79,4.32l-32.3-26.15c-.42-19.75.35-39.54-.13-59.31-.11-4.33-2.52-8.95-.53-13.42l28.57-33.55c4.41,26.48,10.95,52.22,5.12,79.13-1.91,8.79-7.42,17.48-7.25,26.77,1.05-.19,2-1.34,2.72-2.14,12.56-14.02,17.49-69.2,16.77-88.14-.28-7.52-5.12-30.61-4.16-35.37.51-2.51,15.57-25.07,18.35-30.32,3.56-6.74,6.02-14.02,9.44-20.8.58-1.14-.57-2.05,2.25-1.54,1.54,22.53,4.23,44.91,3.29,67.58l-4.91,53.44c9.25-11.58,17.52-24.53,19.98-39.45l-7.55-93.46c1.88-.5,2.16.79,3.24,1.61,4.54,3.46,8.47,7.85,12.96,11.35Z" fill="#1c6065"/><path d="M477.65,0c.2,16.6-7.62,30.57-9.71,46.47,11.1-11.12,13.52-31.31,16.2-46.47h185.87c-4.54,9.96-13.77,7.39-23.08,8.8-13.39,2.03-26.69,4.74-40.15,6.32-32.52,3.8-78.29,3.06-107.57,18.87-5.89,3.18-11.48,10.76-15.07,16.27-.9,2.75,26.45-8.88,28.34-9.49,24.52-7.9,64.73-12.32,91.21-15.77,15.88-2.07,31.95-3.54,47.94-4.46-8.24,9.84-16.2,20.22-25.61,28.95-38.47,4.97-81.82,1.46-119.21,11.55-6.03,1.63-21.42,8.99-25.48,9.21-3.24.18-10.5-6.73-13.71-8.9-3.58-2.42-24.33-14.69-25.11-15.95-2.34-3.8.6-18.32.6-23.2,0-1.98-1.12-4.16-1.17-6.49-.1-5.23.17-10.49.05-15.71h35.66Z" fill="#1c6065"/><path d="M484.13,1080.65c5.46-27.93,2.74-56.38-1.61-84.24l30.78-40.03c2.99,19.86,3.6,39.92,3.3,60.01l-4.91,53.44c5.83-7.62,11.82-15.5,15.52-24.46,9.4-22.74-.62-66.07-2-91.71-.2-3.77.1-7.58,0-11.34l23.76,23.23v41.6c8.4-5.89,11.19-16.15,14.03-25.43.23-.74-.33-2.44,1.63-1.58,1.03.45,17.45,14.21,16.76,15.11-15.55,6.25-25.49,22.22-32.42,36.74,15.19-2.91,29.33-9.88,44.29-13.51,3.38-.82,11.63-3.12,14.52-2.68,2.51.39,16.38,11.08,20.17,13.41,8.78,5.39,17.83,10.41,26.92,15.22-1,1.51-2.18,1.45-3.75,1.65-34.55,4.57-75.96-.14-109.11,9.76-12.57,3.75-20.55,13.56-26.54,24.79h-31.34Z" fill="#1c6065"/><path d="M1064.44,0c-.76,10.58-2.72,20.98-4.85,31.35-7.74,37.74-19.73,75.94-27.23,113.26-7.76,38.63-8.3,81.42-17.05,119.11-1.71,7.38-6.26,21.8-16.79,16.71-4.2-2.03-6.22-20.01-6.52-24.81-3.79-59.87,10.88-131.07,26.52-188.62,6.09-22.42,14.42-44.4,20-67h25.94Z" fill="#1c6065"/><path d="M947.73,0c-10.65,40.91-29.32,79.83-39.68,120.8-4.5,17.81-4.6,30.72-6.8,48.31-1.55,12.38-10.44,46.67-24.18,22.04-16.8-30.12-9.66-80.53-1.67-112.72,6.65-26.8,17.57-52.17,25.86-78.43h46.47Z" fill="#1c6065"/><path d="M988.79,0c-14.29,54.51-35.24,107.68-43.09,163.86-1.74,12.43-1.85,25.22-3.39,37.67-1.15,9.28-1.55,29.77-11.84,32.46s-14.37-3.56-17.26-11.98c-11.4-33.12-3-64.31,6.13-96.4,12.07-42.39,27.65-83.77,41.35-125.61h28.1Z" fill="#1c6065"/><path d="M159.94,0c26.21,11.33,52.51,22.24,77.06,36.95,16.73,10.03,42.77,29.14,48.35,48.91,4.28,15.14-4.43,18.67-17.22,12.9-14.96-6.75-32.88-21.21-48.02-29.78-25.09-14.2-51.84-25.91-79.05-35.5C109.3,22.3,74.92,16.04,45.39,0h114.55Z" fill="#1c6065"/><path d="M1024.45,0c-8.37,52.76-30.24,103.29-39.47,155.59-3.96,22.46-3.33,41.05-4.85,63.23-.6,8.7-3.91,32.93-15.64,33.01-15.89.1-15.1-24.37-14.6-35.15,1.53-33.13,7.09-65.04,15.43-96.96,10.54-40.38,24.25-79.86,36.43-119.72h22.69Z" fill="#1c6065"/><path d="M1080.65,155.61c-5.4,14.85-8.92,30.65-11.57,46.24-4.15,24.36-4.84,52.31-10.54,75.91-4.34,17.95-12.71,23.72-18.63,2.34-12.84-46.37-3.39-108.12,8.41-154.13,8.82-34.38,23.11-66.88,32.33-101.13v130.76Z" fill="#1c6065"/><path d="M886.13,0c-9.27,26.61-20.8,52.82-25.62,80.82-3.04,17.7-2.93,35.86-7.14,53.38-1.26,5.26-4.02,21.66-10.93,14.84-10.45-10.32-13.18-54.73-12.56-69.66,1.11-26.84,11.69-54.31,20.58-79.38h35.66Z" fill="#1c6065"/><path d="M0,410.65c1.5,1.61,6.28,3.83,7.03,5.39.18.37,1.61,6.67,1.61,7.03v43.77c11.48-6.81,11.36-22.22,15.97-32.15.51-1.1-.23-1.7,1.84-1.34,4.85,6.23,13.31,10.65,18.42,16.17.98,1.06,1.98,1.53,1.58,3.26-18.39,5.17-29.98,22.46-37.82,38.91,21.82-5.43,42.65-14.37,64.97-17.82,11.19,10.29,25.89,18.76,36.95,28.83,1.06.96,2.32.97,1.81,3.04-37.44,3.66-75.43,1.62-112.38,9.73v-104.82Z" fill="#1c6065"/><path d="M0,561.94v-25.94c8.43-2.56,17.03-4.58,25.71-6.17,25.46-4.67,54.25-9.73,79.79-13.15,4.51-.6,16.84-2.41,20.48-2.21,1.97.11,10.77,7.77,13.43,9.14.43,1.75-21.87,23.68-25.85,24.9-15.48,1.33-30.62,5.16-46.02,6.93-4.15.48-8.79-.44-12.94.02-18.19,2.03-36.41,4.36-54.58,6.47Z" fill="#1c6065"/><path d="M671.08,1080.65h-141.56c11.52-5.34,24.08-8.13,36.52-10.49,23.47-4.46,49.65-8.58,73.34-12.03,8.95-1.3,27.46-4.6,35.53-4.31,1.78.06,15.63,4.73,15.61,5.76l-19.43,21.07Z" fill="#1c6065"/><path d="M0,574.9l102.67-13.5c-8.3,9.84-15.78,21.3-26.12,28.99l-76.55,5.04v-20.53Z" fill="#1c6065"/><path d="M477.65,1080.65h-35.66c.22-11.29-.88-22.6-1.99-33.83l27.39-32.07c1.47.89,1.36,2.21,1.8,3.58,2.73,8.54,4.86,23.52,6.15,32.75,1.36,9.76,2.36,19.73,2.32,29.56Z" fill="#1c6065"/><path d="M0,610.57c15.64-2.09,31.29-4.91,47.02-6.47,6.58-.66,13.14-.68,19.67-1.97,1.55-.31,1.78-.27,1.42,1.43s-17.93,27.34-19.46,28.09c-16.18,1.07-32.61.71-48.64,2.69v-23.77Z" fill="#1c6065"/><path d="M775.9,0c-22.67,10.25-47.63,14.36-71.08,22.4-8.18,2.8-30.11,13.99-36.46,14.19-1.18.04-2.54-.6-3.62-1.08-5.17-8.14,16.01-20.1,21.44-23.1,8.74-4.82,18.15-7.99,27.04-12.4h62.68Z" fill="#1c6065"/><path d="M304.74,1080.65c22.69-10.2,47.63-14.36,71.08-22.4,8.18-2.8,30.11-13.99,36.46-14.19,1.18-.04,2.54.6,3.62,1.08,5.17,8.14-16.01,20.1-21.44,23.1-9.02,4.98-18.64,8.47-28.12,12.4h-61.6Z" fill="#1c6065"/><path d="M0,367.42v-52.95c3.25-.28,4.3,1.04,5.47,3.72,6.9,15.75,10.45,38.27,16.12,55.2,2.4,7.17,15.52,35.6,15.19,39.96-.26,3.44-4.33,3.05-6.84,2.48-11.21-2.56-25.15-38.19-29.95-48.41Z" fill="#1c6065"/><path d="M1080.65,713.23v44.31c-2.11-1.16-6-3.27-7.48-4.94-4.2-4.74-11.17-36.61-14.11-45.33-3.6-10.68-9.27-21.18-12.75-31.56-1.98-5.91-5.29-13.1,4.39-10.89,11.42,2.61,25.04,38.12,29.95,48.41Z" fill="#1c6065"/><path d="M0,650.55l41.08-4.85c-7.03,12.83-13.35,26.26-17.41,40.4-5.5,4.69-19.25-12.21-23.66-15.01v-20.53Z" fill="#1c6065"/><path d="M1080.65,610.57v23.77c-9.56-1.22-26.66,5.93-35.09,4.31-1.95-.38-17.85-14.18-17.87-15.64l52.96-12.44Z" fill="#1c6065"/><path d="M421.45,0c-.52,9.77,2.23,20,1.13,29.77-.17,1.55-.06,2.88-1.75,3.67-3.7-2.12-25.69-9.06-26.93-10.75-2.3-3.16-2.33-17.95-3.79-22.68h31.34Z" fill="#1c6065"/><path d="M839.66,0c-2.48,9.49-3.87,28.29-13.64,33.36-16.03,8.31-16.68-24.69-17.7-33.36h31.34Z" fill="#1c6065"/><path d="M0,798.6v-23.77c11.62,3.64,25,8.41,35.3,14.95,3.73,2.37,11.16,6.44,7.42,12.11-3.69,5.59-36.01-.68-42.72-3.29Z" fill="#1c6065"/><path d="M259.36,0c1.02,4.24,1.86,9.09-1.42,12.64-10.31,11.16-44.08-5.78-54.78-12.64h56.19Z" fill="#1c6065"/><path d="M779.15,1080.65h-61.6c8.63-2.52,22.49-9.87,30.92-10.74,6.35-.66,15.64,2.4,22.62,1.06l23.78-1.93c5.91,6.6-12.25,7.28-15.72,11.61Z" fill="#1c6065"/><path d="M1080.65,313.39v49.71l-19.45-56.18c2.12-1.55,15.98,6.11,19.45,6.47Z" fill="#1c6065"/><path d="M1080.65,292.86c-9.42-24.82-7.59-53.21-2.72-78.91.54-2.87.68-6.4,2.72-8.62v87.53Z" fill="#1c6065"/><path d="M369.58,0c.73,5.16,2.19,10.17,3.82,15.11.49,1.5,1.06,1.18-1.13,1.13-9.08-.2-19.98-5.18-29.6-4.46l-2.26-11.78h29.18Z" fill="#1c6065"/><polygon points="0 717.55 17.3 767.79 16.76 769.41 0 758.61 0 717.55" fill="#1c6065"/><path d="M328.52,0l1.07,10.81c-.39.54-1.38-1.08-1.61-1.08h-21.61c-.23,0-.58.74-1.08.84-2.5-.22-1.21-8.25-2.7-10.57h25.94Z" fill="#1c6065"/><path d="M1080.65,650.55v19.45c-2.95-2.31-18.33-14.35-18.38-16.74l18.38-2.71Z" fill="#1c6065"/><path d="M305.82,142.66c14.71,29.33,47.77,44.26,79.44,46.45,37.54,2.59,69.95-2.36,106.42,11.37,5.98,2.25,30.54,12.28,29.99,19.45-.8,1.85-2.58,2.79-4.57,2.79-42.1-4.47-86.17-4.49-127.22-15.53-14.34-3.86-40.33-16.19-53.27-16.98-.87-.05-2.6-.48-2.69.53,9.61,18.08,25.46,20.22,43.91,23.09,41.45,6.43,84.59,8.52,126.27,14.21,22.6,3.09,45.14,6.88,65.44,17.77,4.3,2.31,20.58,10.86,12.3,16.72-8.11,5.74-55.05-7.39-67.26-9.31-24.3-3.81-48.71-2.16-73.19-3.54-17.72-1-35.3-4.05-52.92-5.44-1.19-.09-5.03-.86-4.84,1.05,11.61,3.9,23.31,7.32,35.43,9.43,14.79,2.57,32.44,5.01,47.37,6.66,41.54,4.6,81.84.77,121.99,15.25,10.91,3.93,45,20.19,50.72,29.25,8.87,14.05-11.02,6.82-16.48,5.67-34.51-7.23-70.13-16.02-104.82-21.62-25.41-4.1-52.61-4.37-77.36-10.18-14.08-3.3-28.11-10.52-42.82-10.66-4.9,4.71,20.37,16.84,23.49,18.11,41.21,16.77,93.61,13.5,137.73,21.13,36.48,6.31,96.84,23.36,129.53,40.14,5.01,2.57,22.97,12.41,18.39,19.3-5.07,7.63-21.4-2.53-27.6-4.69-8.43-2.94-16.93-5.75-25.62-7.88-32.7-8.03-73.42-16.93-106.56-22.04-24.3-3.75-48.22-2.99-71.96-5.85-13.47-1.62-26.67-9.74-40.66-8.5,3.88,7.37,15.23,10.71,22.95,13.24,16.42,5.38,33.96,8.41,51.09,10.51,82.15,10.07,174.1,21.79,244.66,67.64,8.03,5.22,36.75,26.18,39.52,34.01,2.65,7.47-4.46,6.57-9.41,5.04-33.98-10.51-71.03-29.22-105.39-41.57-28.34-10.19-57.8-19.69-87.58-24.81-35.16-6.04-71.31-7.57-106.14-15.97-16.94-4.09-28.85-11.63-44.29-18.91,12.98,17.76,36.09,26.25,56.45,32.7,85.6,27.11,176.01,28.61,256.96,70.47,23.8,12.31,51.29,29.06,56.76,57.79,3.57,18.75-7.15,19.36-19.95,10.23-35.57-25.39-62.25-47.84-106.84-58.5-13.21-3.16-26.63-3.64-39.82-6.65-20.91-4.77-47.3-13.78-68.23-20.39-38.06-12.01-72.84-30.43-110.48-43.5,5.17,16.11,21.09,25.53,34.93,33.68,85.54,50.32,187.71,45.94,273.37,96.21,9.31,5.46,30.47,16.25,27.54,29.27-3.5,15.57-34.74,2.26-43.39-1.54-25.26-11.11-43.49-23.11-71.19-31.47-46.74-14.11-126.84-18.74-163.44-46.2-5.56-4.17-10.65-11.58-17.86-13.48,2.33,8.01,11.94,15.3,18.49,20.41,49.6,38.76,114.46,41.57,172.27,62.23,38.74,13.85,110.11,43.85,128.24,82.48,6.52,13.88,2.73,24.61-13.74,18.06-13.98-5.56-35.02-22.29-49.5-30.47-51.94-29.35-98.28-38.36-152.28-58.44-23.14-8.61-44.31-21.94-66.74-32.13,6.49,11.85,16.07,26.31,28.45,32.59,20.18,10.24,55.57,16.56,78.3,24.36,28.5,9.77,60.99,25.8,88.15,39.37,29.78,14.87,71.01,38.79,85.75,69.86,3.03,6.4,9.86,19.05-2.35,18.66-14.99-.48-37.3-24.72-49.3-34.01-33.68-26.04-76.09-47.82-114.81-65.66-22.88-10.55-47.86-17.76-70.96-27.91,4.91,15.26,20.52,25.09,33.84,32.6,22.56,12.72,45.59,17.91,69.37,26.81,34.12,12.77,66.82,32.52,95.96,54.25,12.56,9.37,40.43,31.89,45.29,46.55,3.7,11.15-5.72,15.59-14.68,10.36-37.72-25.65-75.56-50.99-116.31-71.73-17.15-8.73-36.37-15.78-53-24.81-10.78-5.86-19.71-14.78-31.31-18.92,3.29,10.95,12.96,18.09,22.36,23.55,44.4,25.82,148.3,66.2,168.03,114.02,1.8,4.37,7.66,18.83-1.55,17.8-11.42-1.27-57.32-38.56-71.8-47.11-16.33-9.65-35.86-17.17-51.45-27.43-13.51-8.89-25.32-22.06-39.64-30.05-1.88,2.35,15.93,34.46,19.55,38.25,8,8.39,25.11,13.03,35.57,18.46,35.12,18.23,86.52,46.09,111.84,76.19,2.33,2.77,11.54,13.71,7.08,16.83-1.21.63-2.51.61-3.83.55-7.07-.32-23.39-15.11-30.25-19.55-28.93-18.75-67.52-44.17-99.26-56.35-2.7-1.04-5.26-2.33-8.29-1.97,9.22,21.63,36.03,27.07,55.02,38.45,18.41,11.03,57.2,38.12,70.3,53.97,5.28,6.39,18.09,24.54-.26,20.8-8.86-1.81-27.96-22.3-35.94-28.91-16.97-14.06-42.5-34.15-61.78-44.12-2.58-1.33-4.7-2.9-7.89-2.37,9.35,30.68,46.81,32.39,68.64,52.92,8.39,7.89,38.37,46.49,42.1,56.25,4.74,12.41-7.21,9.37-14.28,4.54-6.39-4.36-9.29-10.68-14.31-15.95-16.03-16.82-33.91-36.45-54.57-46.98-.99.76-1.59,1.38-1.71,2.71-.73,8.39,28.69,34.72,35.71,41.08,11.43,10.37,45.25,34.84,49.77,47.48,3.23,9.04-2.55,14.7-11.42,10.34-17.73-8.71-27.96-31.9-43.73-43.25,2.51,12.7,12.29,23.49,18.55,34.93,9.69,17.72,22.6,43.71,23.63,63.9.28,5.43,1.5,23.46-7.91,20.96-4.26-1.13-8.8-15.11-11.03-19.31-8.3-15.65-20.37-32.57-24.89-49.68-1.39-5.27-3.71-27.1-7.57-29.18-2.47-1.33-1.67,4.74-1.59,5.92.57,7.97,3.68,16.9,4.29,24.89.31,4.06.9,24.31-4.67,24.14-9.35-5.6-6.15-21.04-7.33-30.51-2.51-20.25-9.72-42.17-13.93-62.26l-2.14,10.26c-1.46,13.67-1.33,53.01-8.63,62.4-.73.94-3.22,1.86-3.24,2.43-.04,1.07,11.15,9.33,9.7,11.33-12.67,4.81-25.08,10.35-38.07,14.35-10.96,3.37-47.2,15.63-52.96,1.6-5.96-14.53,22.07-25.12,32.12-28.92,11.39-4.32,23.75-7.83,35.44-10.63l4.01,3.09c-5.07-17.04-6.21-34.73-5.44-52.46,1.18-27.46,10.79-57.54,2.52-84.54-.55-1.8-1.71-5.94-3.53-6.72-.43,14.2.53,28.52.03,42.72-.63,18.19-2.96,58.31-11.71,73.67-2.74,4.81-4.11,1.47-6.04-1.98-20.47-36.55,4.67-108.7-6.6-151.17-.37-1.39-1.03-5.19-2.7-5.38-3.79,9.61-1.36,19.8-2.19,29.7-.81,9.73-3.33,19.52-4.29,29.21-1.91,19.24-1.69,38.88-5.95,57.81-1.5,6.67-4.52,23.1-13.83,20.31-7.47-2.24-10.68-31.9-11.44-39.36-4.78-46.6,17.96-82.48,16.12-128.51l-2.19-9.13c-2.82,7.96-1.32,16.35-2.31,24.17-3.24,25.61-14.71,64.07-23.91,88.48-3.37,8.95-15.31,40.42-25.12,18.11-9.19-20.88.22-51.33,3.65-73.08,1.61-10.23,1.66-20.62,3.7-30.88,4.97-25.03,28.08-69.36,24.28-91.92-.24-1.44-5.66-14.28-6.24-14.84-1.81-1.75-1.82.4-2.18,1.57-2.27,7.42-1.99,17.06-3.99,25.21-6.83,27.84-20.92,56.33-28.1,85.37-4.83,19.53-6.64,66.58-18.69,79.65-10.54,11.44-15.52-2.41-17.83-11.32-12.41-47.76,6.45-102.7,23.52-147.25,8.09-21.13,26.38-52.36,22.13-74.54-2.5-13.04-11.76-26.92-20.78-36.49-3.74,15.4-3.06,32.01-5,47.94-5.19,42.49-20.03,79.44-27.66,120.39-4.96,26.65-5.32,57.59-11.83,83.27-6.53,25.76-15.36,15.28-19.46-3.94-11.77-55.15-.32-118.26,15.84-171.5,7.45-24.53,31.81-79.27,27.86-102.38-1-5.87-8.61-19.56-12.72-24.03-9.78-10.62-5.56,2.26-5.36,7.52,1.85,48.79-22.25,111.7-32.15,160.3-7.87,38.65-8.25,81.3-17.03,119.13-1.82,7.82-4.95,19.16-15.13,17.25-6.28-1.18-7.78-18.98-8.13-24.32-2.11-31.89,2.68-79.2,7.71-111.14,7.42-47.21,26.33-95.41,37.58-141.8,5.55-22.86,13.92-54.31-2.62-73.94-3.44,9.98-.85,21.35-1.63,31.86-.36,4.9-1.72,10.79-2.68,15.69-13.97,71.98-45.3,145.37-50.25,217.75-.8,11.69,2.12,52.98-13.76,56.51-16.72,3.72-17.04-23.56-16.55-33.87,4.27-89.78,37.48-157.84,60.02-241.48,7.69-28.52,12.72-62.58-1.63-89.68l-2.02,8.23c-2.53,93.37-47.89,178.4-60.51,269.09-2.54,18.22-1.83,44.37-6.93,61.15-3.83,12.6-18.45,12.81-24.05.9-19.43-41.27,7.33-110.77,20.81-152.19,14.43-44.36,34-88.71,44.28-134.02,4.08-18,15.81-66.91,10.57-82.3-1.28-3.75-12.36-22.13-15.11-23.8-2.15-1.31-1.06,1.14-1.12,1.58-1.15,7.7.5,12.59.64,19.44,1.02,50.98-17.69,116.88-33.01,165.92-12.77,40.88-33.91,84.66-39.3,127.12-1.82,14.34-.14,34.77-8.97,47.23-12.34,17.42-22.36-17.46-24.17-26.26-12.07-58.67,24.88-159.1,50.83-212.93,3.81-7.9,10.42-16.42,13.73-24.09,10.45-24.19,14.14-49.86,19.76-75.34,4.96-22.5,12.23-28.96,3.83-53.52-.88-2.58-9-22.81-11.74-13.83-.81,8.56-1.65,17.2-2.33,25.76-3.43,42.95-21.97,93.96-36.73,135.09-15.32,42.66-38.46,86.23-46.17,131.05-1.67,9.69-5.96,68.5-13.93,70.39-6.47,1.53-12.27-19.94-13.11-24.53-14.56-79.82,25.56-144.7,54.25-215.33,15.49-38.14,43.72-107.38,38.27-147.34-.22-1.64-4.55-23.26-8.51-19.04-2.47,7.3-.03,14.27.04,21.02.69,68.9-56.04,150.62-74.3,218.64-3.13,11.67-6.59,42.39-16.57,48.27-9.67,5.7-14.03-3.99-15.86-12.14-6.52-29,1.41-53.56,12.48-79.86,29.79-70.8,86.81-148.95,75.71-228.78-.2-1.42-1.66-9.49-3.68-6.08-1.45,2.45-2.45,16.17-2.67,20.02-1.52,25.97-.05,39.1-8.93,64.55-14.83,42.5-38.15,77.29-56.85,117.14-2.55,5.43-9.64,28.55-14.89,29.48-3.39.61-5.87-8.4-5.83-11.21.51-34.22,42.2-94.73,55.67-129.21,9.84-25.19,21.6-87.92,16.47-113.69-.86-4.34-2.02-10.48-6.18-12.72-2.9,17.2-1.59,34.92-4.65,52.09-6.92,38.78-28.44,80.22-48.13,113.97-1.75,3-4.31,7.12-6.43,9.78-1.02,1.27-1.23,2.96-3.48,2.46l10.04-62.89c17.22-42.05,38.16-86.35,34.25-133.22-.32-3.86-1.06-11.25-4.3-13.52-2.15,6.36.19,13.2-.08,18.74-1.07,21.73-8.78,52.12-15.85,72.86-2.13,6.26-4.04,13.87-8.92,18.62,1.55-19.68,4.63-39.26,6.46-58.9,1.8-19.37,3.85-39.14,5.39-58.36,1.47-18.28-4.62-35.26-1.05-53.47,6.6,5.05,12.28,11.33,19.53,15.58,30.92,18.14,74.6,6.91,102.01,28.75,25.01,19.93-14.91,14.2-25.6,12.63-16.46-2.42-39.48-7.32-54.21-14.95-4.76-2.46-27.53-20.87-30.93-18.23Z" fill="#1c6065"/><path d="M845.05,185.88c-2.35-2.27-3.13,6.01-3.21,7.04-5.31,61.85,51.9,129.34,77.64,182.77,18.76,38.92,48.62,112.28,33.41,154.14-4.93,13.56-15.86,16.15-21.9,1.85-6.16-14.58-9.23-40.85-13.83-57.49-6.6-23.88-15.53-47.87-25.78-70.4-13.03-28.63-31.66-56.4-43.6-85-8.29-19.87-14.64-42.87-20.02-63.74-2.58,1.54-3.21,6.81-3.81,9.69-2.36,11.41-3.18,24.21.28,35.46,31.81,59.2,63,121.42,79.96,186.96,4.36,16.84,7.35,34.74,7.87,52.1-4.5-2.69-28.28-7.9-29.72-10.8-3.91-20.68-6.26-42.21-12.14-62.43-6.76-23.25-16.75-52.43-25.41-75.09-8.24-21.53-19.59-41.94-27.84-63.48-1.82.47-2.74,4.47-3.11,6.05-8.98,38.37,29.99,94.51,43.13,130.62,7.31,20.08,12.42,41.12,16.19,62.15-9.35-2.15-21.6-3.05-30.52-5.67-1.32-.39-2.66-.67-3.48-1.92-10.27-44.93-32.49-86.12-39.49-131.8-2.32-.33-1.74-.08-2.41,1.37-1.09,2.38-2.63,9.86-2.74,12.49-.73,18.27,22.27,76.56,28.39,98.53,1.37,4.91,4.35,13.35,4.84,17.87.22,2.05-.81,2.23-2.16,1.06-1.5-1.31-9.57-32.5-11.57-38.14-8.85-24.89-21.55-48.48-37.7-69.35,4.71-5.9,5.01-12.93,8.23-19.5-4.04-.64-13.27,10.24-15.59,9.69-2.59-3.47-20.33-26.21-18.99-28.06,16.67-6.29,36.92-12.51,46.68-28.44,7.39-12.07,9.79-26.81,10.59-40.73-22.34,18.77-44.49,37.58-68.75,53.91l-23.08-30.69c19.97-11.08,41.61-19.18,61.61-30.22,22.01-12.16,39.23-21.1,41.99-48.78.3-2.99,1.32-11.04-3.12-7.45-3.76,3.05-7.26,9.52-11.31,13.54s-10.72,9.29-15.33,12.76c-24.74,18.62-54.48,33.02-80,50.84l-1.29.05-18.48-25.32c12.31-6.89,23.74-15.35,36.01-22.33,18.16-10.33,37.58-18.91,55.48-29.89,14.24-8.73,39.99-26.45,44.99-42.55,1.01-3.25,1.59-7.18,1.83-10.59-11.74,8.75-20.31,20.28-32.27,28.78-21.23,15.08-49.42,31.2-72.22,44.49-9.37,5.46-29.03,18.24-38.11,21.34-1.24.42-2.93,1-4.16.29-1.02-.59-13.7-17.8-14.08-18.92-.26-.76-.46-1.64-.04-2.37.75-1.29,22.71-12.51,26.16-14.36,26.07-13.98,53.88-26.12,79.64-40.32,23.69-13.05,46.31-29.34,61.03-52.41,12.4,19.43,25.06,38.48,40.5,55.66,4.1,4.56,11.83,10.08,15.01,14.17,4.27,5.52,10.77,22.58,15.1,30.29,31.31,55.75,82.21,120.41,89.58,185.99,3.29,29.25-17.12,26.91-28.68,4.91-13.32-25.33-18.01-56.23-32.05-83.58-21.64-42.14-75.97-103.93-84.37-145.81-.98-4.87-2.09-27.63-3.74-29.23Z" fill="#1c6065"/><path d="M252.88,824.53c2.65-1.28,3.2-5.88,3.81-8.61,2.48-11.05,3.08-24.57-.28-35.46-31.59-58.27-61.13-118.35-78.88-182.63-5.03-18.22-8.28-37.53-8.95-56.42,4.5,2.69,28.28,7.9,29.72,10.8,3.91,20.65,6.32,42.25,12.14,62.43,6.68,23.18,16.76,52.5,25.41,75.09,8.24,21.53,19.58,41.94,27.84,63.48,1.44.03,2.32-3.23,2.66-4.34,11.17-36.28-30.02-97.53-42.68-132.33-6.24-17.16-14.03-42.69-16.13-60.61-.32-2.72,2.68-1.57,4.52-1.26,8.73,1.46,17.74,5,26.81,5.61l2.99,2.42c4.2,15.39,8.47,30.82,13.48,45.95,5.63,17,13.88,34.72,18.6,51.65,1.37,4.92,5.84,32.28,7.04,33.5,1.43,1.45,1.89-.25,2.4-1.37,1.48-3.25,1.36-6.68,1.94-9.96.32-1.78-.7-1.87,2.11-1.63l20.55,36.72c-25.51,7.98-33.66,35.16-34.57,59.45l49.21-39.95,1.55-.03c5.89,9.48,14.86,17.28,22.69,25.39-14.14,8.27-29.63,14.02-43.93,21.97-21.69,12.06-38.67,21.06-41.28,48.4-.42,4.42-1.27,12.04,4.21,6.38,3.84-3.97,6.44-8.77,10.77-13.01,22.53-22.04,55.45-35.66,80.72-54.42l28.43,19.86c-10.39,6.02-20.14,13.16-30.61,19.09-18.41,10.43-38.06,19.11-56.17,30.28-14.08,8.69-39.35,26.19-44.3,42.15-1.01,3.25-1.59,7.18-1.83,10.59,12.88-10.31,22.32-22.04,36.17-31.36,33.78-22.73,71.24-42.74,106.44-63.28,4.23-1.3,17.24,6.22,22,8.38,2.9,1.32,6.17,2.72,9.37,3.06.43,1.98-.61,2.11-1.81,3.05-8.35,6.53-27.28,15.42-37.45,20.9-49.21,26.5-107.82,45.44-140.86,92.61-10.29-1.29-20.47-5.34-30.61-7.96-11.6-36.92-28.12-72.45-47.75-105.7-17-28.79-36.8-55.41-51.51-85.73-10.81-22.28-28.54-64.4-30.39-88.47-2.17-28.31,18.23-23.45,28.96-3.03,13.38,25.44,17.92,56.2,32.05,83.58,21.88,42.41,73.27,100.16,83.46,142.4,2.42,10.02,1.48,20.48,3.89,29.65.24.91,1.02,4.86,2.89,3,3.09-3.07-.46-29.24-1.41-34.78-10.34-60.01-50.79-103.73-76.23-157.19-18.46-38.79-46.84-109.39-32.61-151.18,4.74-13.92,15.86-17.53,22.18-2.65,6.21,14.63,9.22,40.8,13.83,57.49,6.64,24.05,15.44,47.73,25.78,70.4,13.05,28.61,31.67,56.41,43.59,85,8.21,19.69,14.06,42.14,20.02,62.66Z" fill="#1c6065"/><path d="M530.6,849.4c.18,2.24-1.41,3.82-2.69,5.41-29.92,37.45-103.26,70.91-147.56,89.1-29.99,12.31-61.25,19.39-89.3,36.05l-27.36,17.47c-.59-5.9-8.43-14.53-9.59-19.17-.62-2.49,2.46-4.61,4.16-6.23,24.48-23.36,80.68-54.11,111.67-70.96,40.88-22.21,84.97-38.47,123.89-64.2,12.6,2.3,24.15,9.6,36.77,12.52Z" fill="#1c6065"/><path d="M278.81,1038.51c1.03-4.03-8.56-24.39-7.5-25.86,32.11-14.69,62.57-32.7,94.64-47.48,39.4-18.16,81.58-31.54,117.44-56.55,14.76-10.29,27.5-23.37,42.98-32.67,6.73-4.04,18.87-13.64,17.11.9-1.43,11.74-20.2,33.74-28.53,42.79-43.26,47.04-116.88,66.83-174.5,91.33-17.47,7.43-41.75,21.98-58.34,27.03-1.1.34-2.1.69-3.28.5Z" fill="#1c6065"/><path d="M809.39,88.62c.02,5.88,6.11,19.46,5.44,24.25-.42,3.03-6.27,6.68-8.79,8.58-44.93,33.83-111.18,68-162.68,91.27-2.64,1.19-11.45,5.85-13.31,5.08l-28.12-31.41,9.38-6.8c37.78-19.56,76.43-39.9,116.76-53.98,23.33-8.15,39.28-12.55,61.52-24.93,2.54-1.41,18.86-12.75,19.79-12.07Z" fill="#1c6065"/><path d="M801.83,41.06l3.87,28.1c-31.44,15.58-61.99,33.13-93.9,47.73-40.33,18.46-83.66,31.89-119.55,58.82-2.63.7-17.06-18.31-20.57-20.65,18.09-19.36,42.9-32.19,66.59-43.61,35.59-17.15,73.32-29.29,109.52-45.02,18.25-7.93,36.04-16.96,54.04-25.38Z" fill="#1c6065"/><path d="M797.51,1.09l2.89,26.54c-48.06,25.1-102.28,37.75-149.5,65.12-9.81,5.68-30.39,22.03-40.91,21.83-8.95-.17-10.63-7.19-8.13-14.67,9.31-27.8,51.64-46.65,76.51-56.41,39.23-15.39,79.72-27.54,119.14-42.41Z" fill="#1c6065"/><path d="M287.46,1077.41l-4.2-26.89c45.21-21.64,94.95-34.1,138.92-58.29,10.92-6.01,38.75-27.13,49.42-26.1,18.37,1.77,1.93,24.1-3.71,30.75-27.41,32.32-86.08,48.27-125.85,62.19-18.11,6.34-36.45,12.12-54.59,18.35Z" fill="#1c6065"/><path d="M189.11,903.41c-.74.8-9.4-6.82-10.16-7.66-2.79-3.08-6.41-8.86-9.09-12.53-31.77-43.54-56.64-93.15-91.5-134.36-4.86-5.74-17.34-16.6-20.23-21.92-9.07-16.68-12.87-50.51-7.63-68.58,2.25-7.75,14.28-35.44,24.57-21.84,3.77,4.97,5.81,34.57,7.39,43.4,5.42,30.28,16.45,65.12,33.36,90.91,7.13,10.88,16,19.83,22.67,31.36,13.9,24.02,31.59,56.29,42.89,81.39,1.04,2.32,8.44,19.05,7.71,19.83Z" fill="#1c6065"/><path d="M936.91,686.2l-54.85-13.23c-12.04-25.61-23.87-51.33-38.29-75.71-2.17-3.66-9.55-12.66-10.34-15.59-1.87-6.95-1.65-18.9-2.55-26.63-.74-6.36-1.81-12.78-3.1-19.04,1.15-1.06,7.54,2.66,8.97,3.45,40.64,22.3,83.55,99.86,99.33,142.74.5,1.35,1.15,2.46.84,4.01Z" fill="#1c6065"/><path d="M257.2,929.38c.08-.12,1.71-.24,2.66-1.08,47.26-41.98,104.52-67.83,159.08-98.17,4.45-2.48,19.9-13.25,23.31-12.95,1.48.13,3.98,1.42,5.7,1.95,3.28,1,31.87,10.73,31.84,12.44-32.33,18.29-65.71,34.71-99.01,51.18-35.77,17.69-73.4,31.96-104.83,57.31-4.11-3.8-14.11-5.31-17.6-8.06-.79-.62-1.86-1.61-1.14-2.61Z" fill="#1c6065"/><path d="M997.43,707.82c-7.05-3.15-14.12-6.67-21.32-9.47-4.73-1.84-19.01-4.78-21.35-7.83-13.66-31.78-26.2-64.76-46.14-93.27-10.31-14.75-23.36-27.47-32.67-42.98-4.74-7.89-14.08-19.87,2.66-16.71,10.62,2.01,31.46,19.35,39.95,27.05,40.47,36.71,59.89,93.25,78.86,143.2Z" fill="#1c6065"/><path d="M930.44,253.96l26.41,13.02c11.32,17.32,22.09,35.32,34.75,51.7,7,9.06,27.47,28.19,31.24,35.76,6.02,12.1,11.55,42.29,10.25,55.65-.93,9.56-9.84,37.97-22.06,37.28-10.18-.58-9.3-25.28-10.5-32.79-4.87-30.45-12.31-60.67-26.3-88.25-12.85-25.34-34.68-44.65-43.78-72.38Z" fill="#1c6065"/><path d="M15.13,320.96c1.52-1.49,33.88,16.15,38.31,18.41,11.39,30.8,22.79,61.89,39.31,90.37,5.71,9.86,22.81,31.2,21.78,41.86-1.76,18.24-24.16,1.84-30.75-3.72-18.81-15.85-27.98-34.61-37.04-56.97-11.9-29.36-21.87-59.84-31.6-89.96Z" fill="#1c6065"/><path d="M392.03,47.85c14.42-1.54,39.87,1.9,50.54,12.63,11.85,11.92.03,16.31-11.14,18.12-37.73,6.13-66.13,8.93-101.47,26.04-3.88,1.88-21.2,12.78-22.71,13.01-3.3.52-11.66-13.52-12.16-16.68-.48-3.06-.62-16.51,1-18.32,1.61-1.8,22.34-10.88,26.3-12.61,18.7-8.17,49.71-20.07,69.65-22.2Z" fill="#1c6065"/><path d="M823.45,151.27c-.08.12-1.71.24-2.66,1.08-46.88,41.64-105.87,69.3-160.51,99.01-2.02.91-3.06-.97-4.36-2.25-1.9-1.86-15.85-18.31-16.13-19.54-.38-1.7,1.41-2.19,2.45-2.86,15.26-9.87,40.55-20.48,57.64-28.81,36.07-17.55,73.02-32.01,104.83-57.31,4.11,3.8,14.11,5.31,17.6,8.06.79.62,1.86,1.61,1.14,2.61Z" fill="#1c6065"/><path d="M1060.11,743.48l-41.09-24.56c-8.16-20.17-15.98-40.6-26.42-59.74-6.05-11.11-27.52-39.37-26.48-50.13,1.45-15.08,17.68-6.09,24.74-1.08,22.29,15.81,33.09,37.22,43.05,61.77,9.78,24.1,17.94,49.09,26.2,73.75Z" fill="#1c6065"/><path d="M671.07,932.62c.36.42.43,1.54-.7,2.14-5.71,3.02-18.72,6.73-25.48,8.94-29.31,9.58-61.84,19.56-92.44,9.74-15.58-5-18.46-16.99-1.9-23.03,15.69-5.72,38.87-8.77,55.92-13.24,5.99-1.57,26.73-9.36,30.59-9.31,3.27.04,27.33,19.98,31.34,23.7.85.79,2.56.95,2.67,1.07Z" fill="#1c6065"/><path d="M406.33,149.12c-.54-.7,1.77-1.97,2.48-2.36,6.61-3.59,19.36-7.31,26.94-9.8,29.37-9.63,61.77-19.58,92.44-9.74,15.58,5,18.46,16.99,1.9,23.03-21.55,7.86-49.54,8.86-71.37,17.89-16.69-8.26-34.35-14.43-52.4-19.02Z" fill="#1c6065"/><path d="M756.45,1011.47c-25.19,9.01-56.58,23.67-83.79,21.67-9.63-.71-30.12-6.9-36.15-14.64-13.77-17.68,20.35-16.51,29.56-17.98,12.97-2.07,26.01-4.53,38.75-7.72,4.96-1.24,18.87-6.95,22.12-7.02,1.56-.03,3.88,2.02,5.18,3.04,6.13,4.8,17.86,14.68,23.19,20.03.89.89,1.55.95,1.15,2.62Z" fill="#1c6065"/><path d="M439.58,86.75c29.93-3.35,26.63,17.49,4.22,29.07-21.2,10.95-47.54,14.53-69.36,24.73-4.51-.89-43.78-9.15-43.73-11.42,26.46-15.03,55.88-28.66,85.35-36.74,6.96-1.91,16.6-4.87,23.53-5.65Z" fill="#1c6065"/><path d="M615.96,61.6c.5,1.89-.79,2.16-1.61,3.24-5.05,6.67-13.79,18.16-19.44,23.78-1.3,1.3-2.29,2.95-4.36,3.2-26.1-.51-51.98,1.8-77.73,5.43l-18.95-15.68c39.44-12.23,80.97-17.05,122.1-19.98Z" fill="#1c6065"/><path d="M479.81,178.32c27.36-6.74,57.38-13.9,85.37-7.04,38.52,9.45,15.38,22.45-9.2,25.39-13.66,1.63-27.61.56-41.08,3.83-2.37-2.32-36.36-20.53-35.09-22.17Z" fill="#1c6065"/><path d="M293.94,69.16c1.65-5.32-3.07-29.36-.02-31.89,1.82-1.52,26-7.69,30.26-8.64,8.62-1.92,54.64-9.82,58.98-3.85,3.44,4.72-2.92,7.66-5.99,9.29-20.38,10.83-52.62,23.67-74.63,32.36-1.44.57-7.86,3.52-8.6,2.73Z" fill="#1c6065"/><path d="M793.2,1027.69l.77,12.5c-.33,1.79-25.67,8.88-29.72,9.89-15.34,3.84-33.62,7.44-49.41,7.86-10.1.27-28.23-.97-11.38-11.38l64.82-28.07c8.27,3.02,15.45,10.15,24.93,9.2Z" fill="#1c6065"/><path d="M526.28,207.5c22.53-4.49,45.52-8.27,68.66-6.53,5.37.4,20.42,2.57,23.07,7.18,4.23,7.38-2.73,12.28-9.02,14.51-13.3,4.7-32.44,4.54-46.49,8.67l-4.19-1.3-32.02-22.53Z" fill="#1c6065"/><path d="M82.12,816.97l-38.27-29.26c-.91-17.62-18.56-47.53-16.63-63.92.78-6.64,5.61-7.1,10.08-3.01,7.48,6.86,23.82,45.19,28.81,56.56,5.71,13.01,10.91,26.38,16.01,39.63Z" fill="#1c6065"/><path d="M541.41,912.06c4.11-7.59,5.25-20.26,8.87-27.32.7-1.36,1.14-2.18,2.71-2.7,3.28-1.07,32.84-5.87,35.14-5.45l31.06,18.72c-24.38,10.59-51.29,15.48-77.78,16.74Z" fill="#1c6065"/><path d="M1008.25,286.38c4.87,2.22,27.99,8.54,29.69,11.91,2.74,15.45,10.14,29.7,13.39,44.96,1.06,4.96,4.13,15.25-.54,18.71-5.9,4.37-15.28-13.78-17.5-17.96-5.26-9.91-10.92-22.72-15.51-33.12-1.28-2.91-10.44-23.55-9.53-24.5Z" fill="#1c6065"/><polygon points="581.38 104.83 557.04 139.4 528.44 111.84 581.38 104.83" fill="#1c6065"/><path d="M576.52,239.9h20.53c3.22,0,13.11,2.68,16.76,3.77,6.07,1.81,24.81,8.71,13.93,16.12-2.49,1.69-17.27,5.9-19.91,5.56-4.92-.64-25.68-20.69-32.41-23.28l1.1-2.17Z" fill="#1c6065"/><path d="M866.68,667.83c-12.21-1.28-29.86-15.17-31.36-27.52-1.2-9.89.22-22.7-1.05-32.98l32.41,60.51Z" fill="#1c6065"/><path d="M137.23,860.19l-41.07-32.17c-2.61-3.59-10.83-20.51-6.54-23.56,6.97-2.39,10.85,4.9,15.18,8.75,10.11,16.13,24.51,29.3,32.44,46.98Z" fill="#1c6065"/><path d="M623.53,276.66c10.55-.95,33.66-3.03,42.93,1.9,13.67,7.27-18.61,14.11-23.96,13.25-3.13-.5-16.07-12.21-18.97-15.14Z" fill="#1c6065"/><path d="M961.77,537.09c-.82,10.17,2.25,20.73,1.14,30.85-.12,1.09-.52,3.73-1.67,3.71-1.24-.03-16.69-13.43-19.99-14.61-.3-1.22,15.11-16.67,17.28-18.34,1.08-.83,1.37-2.1,3.24-1.61Z" fill="#1c6065"/><path d="M264.59,945.41c-3.49,2.21-17.07-3.62-21.44-4.72-10.42-2.63-22.46-1.68-27.02-13.49,8.35,3.1,45.98,6.32,49.2,14.09.45,1.09-.15,3.75-.75,4.13Z" fill="#1c6065"/><path d="M659.19,304.75c5.88-.19,26.03.82,28.65,6.49,2.26,4.9-5.27,10.82-10.31,9.26-3.4-1.05-14.74-12.79-18.33-15.75Z" fill="#1c6065"/><path d="M259.2,563.17c1.38,1.35,3.3,30.87,4.47,35.5l-10.79-35.13c-1.28-2.7,6.08-.61,6.33-.37Z" fill="#1c6065"/><path d="M572.74,867.77c1.84,1.72-.4,1.84-1.57,2.18-5.36,1.57-11.34,1.96-16.79,3.2l2.17-11.88,16.2,6.49Z" fill="#1c6065"/></g></svg>